<!-- Generator: Adobe Illustrator 24.2.1, SVG Export Plug-In  -->
<svg version="1.1" xmlns="http://www.w3.org/2000/svg" xmlns:xlink="http://www.w3.org/1999/xlink" x="0px" y="0px"
	 width="932.81px" height="593.77px" viewBox="0 0 932.81 593.77"
	 style="overflow:visible;enable-background:new 0 0 932.81 593.77;" xml:space="preserve">
<style type="text/css">
	.st0{fill-rule:evenodd;clip-rule:evenodd;fill:#F6B93B;}
	.st1{fill-rule:evenodd;clip-rule:evenodd;fill:#672C90;}
	.st2{fill-rule:evenodd;clip-rule:evenodd;fill:#FFFFFF;}
</style>
<defs>
</defs>
<g id="Character_x2F_chilling_1_">
	<path id="Accent_1_" class="st0" d="M713.91,418.5c-10.64-11.77-22.65-22.34-34.94-32.35c-2.3-1.87-4.61-3.73-6.96-5.54
		c-22.08-42.15-54.7-82.15-93.19-110.12c-29.87-21.7-65.52-35.63-102.88-32.66c-35.65,2.84-70.12,15.62-97.59,38.73
		c-41.57,34.97-63.99,88.22-73.58,140.64c-1.33,7.26-2.43,14.58-3.19,21.93c-0.16,1.5,0.28,6.57-0.7,7.76
		c-0.77,0.94-4.67,1.38-5.78,1.71c-4.83,1.43-9.66,2.86-14.48,4.29c-14.11,4.18-28.22,8.35-42.33,12.53
		c-14.28,4.22-28.55,8.45-42.83,12.68c-4.87,1.44-9.73,2.88-14.6,4.32c-1.45,0.43-6.12,0.94-7.17,2.12
		c-0.79,0.89-0.31,4.41-0.34,5.62l-0.51,19.02c-0.38,14.55-0.77,29.09-1.16,43.64c-0.07,2.74-0.15,5.49-0.22,8.23l88.18-6.71
		c7.64-0.59,16.1,0.59,22.38-4.03l41.38-30.45c2.85-2.1,6.12-5.45,9.42-6.77c5.74-2.28,13.68-2.23,19.76-3.22
		c8.49-1.39,16.97-2.77,25.46-4.16c0.67-0.11,3.99-0.18,4.44-0.77c0.66-0.84-0.59-5.61-0.7-6.64c-0.93-8.86-1.86-17.73-2.8-26.6
		c-0.09-0.85-1.07-4.77-0.55-5.46c0.44-0.58,4.39-0.54,5.11-0.62c8.8-1.08,17.59-2.16,26.39-3.23l12.21-1.5
		c0.84-0.1,5.37-1.31,6.14-0.75c1.23,0.9,1.18,8.34,1.37,9.84l3.31,25.25l6.25,47.76c0.57,4.34,2.66,2.6,7,2.26l26.91-2.07
		c3.73-0.28,5.9-0.31,9.09-2.03c6.51-3.51,13.03-7.03,19.54-10.54c13.48-7.28,26.91-16.1,41-22.13c9.43-4.04,20.87-5.39,30.82-7.85
		l48.65-12.01c10.58-2.61,21.88-2.73,32.69-3.79c4.6-0.45,9.21-0.9,13.81-1.35c2.29-0.22,6.23,0.15,8.33-0.82
		c1.97-0.91,2.36-3.37,3.82-5.45c0.2-0.28,0.41-0.56,0.63-0.84c5.19-6.83,13.21-11.39,20.96-14.68c5.01-2.13,10.25-3.34,15.41-4.86
		h0.01c1.56-0.46,3.11-0.94,4.64-1.49c2.36-0.84,4.72-2.07,6.15-4.21C735.44,441.05,719.85,425.07,713.91,418.5z M440.6,436.68
		c0.74-11.86,1.91-23.71,3.36-35.51c2.32-18.8,4.62-38.96,12.07-56.56c1.85-4.37,4.74-10.96,10.05-11.91
		c6.54-1.18,12.75,5.91,16.45,10.25c2.01,2.35,3.91,4.8,5.73,7.32c0.02,0.02,0.03,0.04,0.05,0.06c0.3,0.4,0.59,0.81,0.87,1.22
		c0.01,0.01,0.01,0.02,0.02,0.03c9.08,12.88,16.04,27.58,22.53,41.71c1.78,3.89,3.87,7.69,4.62,11.9c1.51,8.4,2.51,16.93,3.76,25.37
		C493.61,432.6,467.1,434.64,440.6,436.68z"/>
	<path id="Ink_1_" class="st1" d="M793.85,145.54c-4.73,0.47-6.48,9.31-6.51,12.85c-0.04,3.57,1.91,9.84,6.37,5.57
		c3.17-3.03,2.81-9.37,3.83-13.32C794.53,149.83,797.89,145.15,793.85,145.54z M822.21,150.79c-3.6,2.18-7.88,21.51-1.51,21.15
		c5.24-0.31,6.17-8.35,6.6-12.12C827.67,156.62,827.98,147.31,822.21,150.79z M805.53,177.2c-4.07-3.38-2.65-6.21-1.05-10.6
		c0.99-2.68,6.83-15.96,3.41-18.03c-6.1-3.7-12.7,21.07-13.42,24.25c-1.11,4.84-2.58,10.75,2.43,13.83
		c3.44,2.12,11.92,3.94,14.39-0.39C813.96,181.57,808.37,179.55,805.53,177.2z M821.71,190.34c-2.25,0.03-4.73,3.11-6.65,4.07
		c-3.36,1.69-6.88,1.45-10.43,2.02c-7.4,1.19-2.29,8.37,2.44,10c5.98,2.05,12.78-0.1,15.96-5.67
		C824.54,198.12,827.22,190.26,821.71,190.34z M822.21,150.79c-3.6,2.18-7.88,21.51-1.51,21.15c5.24-0.31,6.17-8.35,6.6-12.12
		C827.67,156.62,827.98,147.31,822.21,150.79z M821.71,190.34c-2.25,0.03-4.73,3.11-6.65,4.07c-3.36,1.69-6.88,1.45-10.43,2.02
		c-7.4,1.19-2.29,8.37,2.44,10c5.98,2.05,12.78-0.1,15.96-5.67C824.54,198.12,827.22,190.26,821.71,190.34z M805.53,177.2
		c-4.07-3.38-2.65-6.21-1.05-10.6c0.99-2.68,6.83-15.96,3.41-18.03c-6.1-3.7-12.7,21.07-13.42,24.25
		c-1.11,4.84-2.58,10.75,2.43,13.83c3.44,2.12,11.92,3.94,14.39-0.39C813.96,181.57,808.37,179.55,805.53,177.2z M793.85,145.54
		c-4.73,0.47-6.48,9.31-6.51,12.85c-0.04,3.57,1.91,9.84,6.37,5.57c3.17-3.03,2.81-9.37,3.83-13.32
		C794.53,149.83,797.89,145.15,793.85,145.54z M597.84,312.5c-2.17-1.6-7.75-8.09-10.72-7.51c-1.9,0.38-4.05,4.43-5.82,5.56
		c-7.57,4.88-10.46,15.85-13.51,24.04c-2.15,5.76-6.1,14.66,0.41,19.2c3.94,2.75,9.79,1.93,14.2,1.24
		c5.55-0.88,10.92-2.61,16.44-3.6c4.27-0.77,8.66-1.18,12.98-1.53c3.37-0.26,8.25,0.58,11.23-1.27
		C637.46,339.67,603.19,316.45,597.84,312.5z M431.15,405.49c-4.37-6.81-10.04-12.71-14.51-19.45c-2.06-3.11-5.76-11.29-10.72-9.58
		c-4.18,1.44-6.93,8.66-8.77,12.2c-2.65,5.11-5.4,10.21-7.44,15.6c-1.91,5.07-6.22,13-0.26,16.88c2.22,1.45,5.38,1.25,7.9,1.39
		c4,0.2,7.98,0.69,11.99,0.79c4.24,0.1,8.43-0.27,12.66-0.34c2.74-0.05,5.82,0.42,8.43-0.66
		C437.88,419.25,434.25,410.32,431.15,405.49z M655.53,440.57c-5.3-7.78-10.02-15.97-17.03-22.38c-2.49-2.28-4.52-11.83-8.46-10.61
		c-2.72,0.84-4.9,7.27-5.99,9.48c-2.42,4.89-4.49,9.94-6.5,15.01c-2.85,7.24-19.97,41.89,0.64,36.84c8.19-2,15.21-5.89,23.82-6.26
		c5.47-0.24,14.57,0.88,18.48-4.02C665.09,452.88,658.76,445.31,655.53,440.57z M655.53,440.57c-5.3-7.78-10.02-15.97-17.03-22.38
		c-2.49-2.28-4.52-11.83-8.46-10.61c-2.72,0.84-4.9,7.27-5.99,9.48c-2.42,4.89-4.49,9.94-6.5,15.01
		c-2.85,7.24-19.97,41.89,0.64,36.84c8.19-2,15.21-5.89,23.82-6.26c5.47-0.24,14.57,0.88,18.48-4.02
		C665.09,452.88,658.76,445.31,655.53,440.57z M597.84,312.5c-2.17-1.6-7.75-8.09-10.72-7.51c-1.9,0.38-4.05,4.43-5.82,5.56
		c-7.57,4.88-10.46,15.85-13.51,24.04c-2.15,5.76-6.1,14.66,0.41,19.2c3.94,2.75,9.79,1.93,14.2,1.24
		c5.55-0.88,10.92-2.61,16.44-3.6c4.27-0.77,8.66-1.18,12.98-1.53c3.37-0.26,8.25,0.58,11.23-1.27
		C637.46,339.67,603.19,316.45,597.84,312.5z M431.15,405.49c-4.37-6.81-10.04-12.71-14.51-19.45c-2.06-3.11-5.76-11.29-10.72-9.58
		c-4.18,1.44-6.93,8.66-8.77,12.2c-2.65,5.11-5.4,10.21-7.44,15.6c-1.91,5.07-6.22,13-0.26,16.88c2.22,1.45,5.38,1.25,7.9,1.39
		c4,0.2,7.98,0.69,11.99,0.79c4.24,0.1,8.43-0.27,12.66-0.34c2.74-0.05,5.82,0.42,8.43-0.66
		C437.88,419.25,434.25,410.32,431.15,405.49z M503.53,478.75c-0.09-4.37-0.88-9-0.51-13.35c0.27-3.19,0.06-9.66-5.3-9.43
		c-8.23,0.36-15.97,4.72-23.94,6.53c-5.59,1.26-15.33,2.76-14.43,10.74c0.8,7.06,13.16,11.53,18.02,15.25
		c5.29,4.05,10.7,10.35,17.27,12.16C504.86,503.46,503.65,484.53,503.53,478.75z M503.53,478.75c-0.09-4.37-0.88-9-0.51-13.35
		c0.27-3.19,0.06-9.66-5.3-9.43c-8.23,0.36-15.97,4.72-23.94,6.53c-5.59,1.26-15.33,2.76-14.43,10.74
		c0.8,7.06,13.16,11.53,18.02,15.25c5.29,4.05,10.7,10.35,17.27,12.16C504.86,503.46,503.65,484.53,503.53,478.75z M431.15,405.49
		c-4.37-6.81-10.04-12.71-14.51-19.45c-2.06-3.11-5.76-11.29-10.72-9.58c-4.18,1.44-6.93,8.66-8.77,12.2
		c-2.65,5.11-5.4,10.21-7.44,15.6c-1.91,5.07-6.22,13-0.26,16.88c2.22,1.45,5.38,1.25,7.9,1.39c4,0.2,7.98,0.69,11.99,0.79
		c4.24,0.1,8.43-0.27,12.66-0.34c2.74-0.05,5.82,0.42,8.43-0.66C437.88,419.25,434.25,410.32,431.15,405.49z M503.53,478.75
		c-0.09-4.37-0.88-9-0.51-13.35c0.27-3.19,0.06-9.66-5.3-9.43c-8.23,0.36-15.97,4.72-23.94,6.53c-5.59,1.26-15.33,2.76-14.43,10.74
		c0.8,7.06,13.16,11.53,18.02,15.25c5.29,4.05,10.7,10.35,17.27,12.16C504.86,503.46,503.65,484.53,503.53,478.75z M597.84,312.5
		c-2.17-1.6-7.75-8.09-10.72-7.51c-1.9,0.38-4.05,4.43-5.82,5.56c-7.57,4.88-10.46,15.85-13.51,24.04
		c-2.15,5.76-6.1,14.66,0.41,19.2c3.94,2.75,9.79,1.93,14.2,1.24c5.55-0.88,10.92-2.61,16.44-3.6c4.27-0.77,8.66-1.18,12.98-1.53
		c3.37-0.26,8.25,0.58,11.23-1.27C637.46,339.67,603.19,316.45,597.84,312.5z M655.53,440.57c-5.3-7.78-10.02-15.97-17.03-22.38
		c-2.49-2.28-4.52-11.83-8.46-10.61c-2.72,0.84-4.9,7.27-5.99,9.48c-2.42,4.89-4.49,9.94-6.5,15.01
		c-2.85,7.24-19.97,41.89,0.64,36.84c8.19-2,15.21-5.89,23.82-6.26c5.47-0.24,14.57,0.88,18.48-4.02
		C665.09,452.88,658.76,445.31,655.53,440.57z M793.85,145.54c-4.73,0.47-6.48,9.31-6.51,12.85c-0.04,3.57,1.91,9.84,6.37,5.57
		c3.17-3.03,2.81-9.37,3.83-13.32C794.53,149.83,797.89,145.15,793.85,145.54z M805.53,177.2c-4.07-3.38-2.65-6.21-1.05-10.6
		c0.99-2.68,6.83-15.96,3.41-18.03c-6.1-3.7-12.7,21.07-13.42,24.25c-1.11,4.84-2.58,10.75,2.43,13.83
		c3.44,2.12,11.92,3.94,14.39-0.39C813.96,181.57,808.37,179.55,805.53,177.2z M821.71,190.34c-2.25,0.03-4.73,3.11-6.65,4.07
		c-3.36,1.69-6.88,1.45-10.43,2.02c-7.4,1.19-2.29,8.37,2.44,10c5.98,2.05,12.78-0.1,15.96-5.67
		C824.54,198.12,827.22,190.26,821.71,190.34z M822.21,150.79c-3.6,2.18-7.88,21.51-1.51,21.15c5.24-0.31,6.17-8.35,6.6-12.12
		C827.67,156.62,827.98,147.31,822.21,150.79z M822.21,150.79c-3.6,2.18-7.88,21.51-1.51,21.15c5.24-0.31,6.17-8.35,6.6-12.12
		C827.67,156.62,827.98,147.31,822.21,150.79z M821.71,190.34c-2.25,0.03-4.73,3.11-6.65,4.07c-3.36,1.69-6.88,1.45-10.43,2.02
		c-7.4,1.19-2.29,8.37,2.44,10c5.98,2.05,12.78-0.1,15.96-5.67C824.54,198.12,827.22,190.26,821.71,190.34z M805.53,177.2
		c-4.07-3.38-2.65-6.21-1.05-10.6c0.99-2.68,6.83-15.96,3.41-18.03c-6.1-3.7-12.7,21.07-13.42,24.25
		c-1.11,4.84-2.58,10.75,2.43,13.83c3.44,2.12,11.92,3.94,14.39-0.39C813.96,181.57,808.37,179.55,805.53,177.2z M793.85,145.54
		c-4.73,0.47-6.48,9.31-6.51,12.85c-0.04,3.57,1.91,9.84,6.37,5.57c3.17-3.03,2.81-9.37,3.83-13.32
		C794.53,149.83,797.89,145.15,793.85,145.54z M655.53,440.57c-5.3-7.78-10.02-15.97-17.03-22.38c-2.49-2.28-4.52-11.83-8.46-10.61
		c-2.72,0.84-4.9,7.27-5.99,9.48c-2.42,4.89-4.49,9.94-6.5,15.01c-2.85,7.24-19.97,41.89,0.64,36.84c8.19-2,15.21-5.89,23.82-6.26
		c5.47-0.24,14.57,0.88,18.48-4.02C665.09,452.88,658.76,445.31,655.53,440.57z M597.84,312.5c-2.17-1.6-7.75-8.09-10.72-7.51
		c-1.9,0.38-4.05,4.43-5.82,5.56c-7.57,4.88-10.46,15.85-13.51,24.04c-2.15,5.76-6.1,14.66,0.41,19.2c3.94,2.75,9.79,1.93,14.2,1.24
		c5.55-0.88,10.92-2.61,16.44-3.6c4.27-0.77,8.66-1.18,12.98-1.53c3.37-0.26,8.25,0.58,11.23-1.27
		C637.46,339.67,603.19,316.45,597.84,312.5z M431.15,405.49c-4.37-6.81-10.04-12.71-14.51-19.45c-2.06-3.11-5.76-11.29-10.72-9.58
		c-4.18,1.44-6.93,8.66-8.77,12.2c-2.65,5.11-5.4,10.21-7.44,15.6c-1.91,5.07-6.22,13-0.26,16.88c2.22,1.45,5.38,1.25,7.9,1.39
		c4,0.2,7.98,0.69,11.99,0.79c4.24,0.1,8.43-0.27,12.66-0.34c2.74-0.05,5.82,0.42,8.43-0.66
		C437.88,419.25,434.25,410.32,431.15,405.49z M503.53,478.75c-0.09-4.37-0.88-9-0.51-13.35c0.27-3.19,0.06-9.66-5.3-9.43
		c-8.23,0.36-15.97,4.72-23.94,6.53c-5.59,1.26-15.33,2.76-14.43,10.74c0.8,7.06,13.16,11.53,18.02,15.25
		c5.29,4.05,10.7,10.35,17.27,12.16C504.86,503.46,503.65,484.53,503.53,478.75z M431.15,405.49c-4.37-6.81-10.04-12.71-14.51-19.45
		c-2.06-3.11-5.76-11.29-10.72-9.58c-4.18,1.44-6.93,8.66-8.77,12.2c-2.65,5.11-5.4,10.21-7.44,15.6c-1.91,5.07-6.22,13-0.26,16.88
		c2.22,1.45,5.38,1.25,7.9,1.39c4,0.2,7.98,0.69,11.99,0.79c4.24,0.1,8.43-0.27,12.66-0.34c2.74-0.05,5.82,0.42,8.43-0.66
		C437.88,419.25,434.25,410.32,431.15,405.49z M503.53,478.75c-0.09-4.37-0.88-9-0.51-13.35c0.27-3.19,0.06-9.66-5.3-9.43
		c-8.23,0.36-15.97,4.72-23.94,6.53c-5.59,1.26-15.33,2.76-14.43,10.74c0.8,7.06,13.16,11.53,18.02,15.25
		c5.29,4.05,10.7,10.35,17.27,12.16C504.86,503.46,503.65,484.53,503.53,478.75z M597.84,312.5c-2.17-1.6-7.75-8.09-10.72-7.51
		c-1.9,0.38-4.05,4.43-5.82,5.56c-7.57,4.88-10.46,15.85-13.51,24.04c-2.15,5.76-6.1,14.66,0.41,19.2c3.94,2.75,9.79,1.93,14.2,1.24
		c5.55-0.88,10.92-2.61,16.44-3.6c4.27-0.77,8.66-1.18,12.98-1.53c3.37-0.26,8.25,0.58,11.23-1.27
		C637.46,339.67,603.19,316.45,597.84,312.5z M655.53,440.57c-5.3-7.78-10.02-15.97-17.03-22.38c-2.49-2.28-4.52-11.83-8.46-10.61
		c-2.72,0.84-4.9,7.27-5.99,9.48c-2.42,4.89-4.49,9.94-6.5,15.01c-2.85,7.24-19.97,41.89,0.64,36.84c8.19-2,15.21-5.89,23.82-6.26
		c5.47-0.24,14.57,0.88,18.48-4.02C665.09,452.88,658.76,445.31,655.53,440.57z M793.85,145.54c-4.73,0.47-6.48,9.31-6.51,12.85
		c-0.04,3.57,1.91,9.84,6.37,5.57c3.17-3.03,2.81-9.37,3.83-13.32C794.53,149.83,797.89,145.15,793.85,145.54z M805.53,177.2
		c-4.07-3.38-2.65-6.21-1.05-10.6c0.99-2.68,6.83-15.96,3.41-18.03c-6.1-3.7-12.7,21.07-13.42,24.25
		c-1.11,4.84-2.58,10.75,2.43,13.83c3.44,2.12,11.92,3.94,14.39-0.39C813.96,181.57,808.37,179.55,805.53,177.2z M821.71,190.34
		c-2.25,0.03-4.73,3.11-6.65,4.07c-3.36,1.69-6.88,1.45-10.43,2.02c-7.4,1.19-2.29,8.37,2.44,10c5.98,2.05,12.78-0.1,15.96-5.67
		C824.54,198.12,827.22,190.26,821.71,190.34z M822.21,150.79c-3.6,2.18-7.88,21.51-1.51,21.15c5.24-0.31,6.17-8.35,6.6-12.12
		C827.67,156.62,827.98,147.31,822.21,150.79z M822.21,150.79c-3.6,2.18-7.88,21.51-1.51,21.15c5.24-0.31,6.17-8.35,6.6-12.12
		C827.67,156.62,827.98,147.31,822.21,150.79z M821.71,190.34c-2.25,0.03-4.73,3.11-6.65,4.07c-3.36,1.69-6.88,1.45-10.43,2.02
		c-7.4,1.19-2.29,8.37,2.44,10c5.98,2.05,12.78-0.1,15.96-5.67C824.54,198.12,827.22,190.26,821.71,190.34z M805.53,177.2
		c-4.07-3.38-2.65-6.21-1.05-10.6c0.99-2.68,6.83-15.96,3.41-18.03c-6.1-3.7-12.7,21.07-13.42,24.25
		c-1.11,4.84-2.58,10.75,2.43,13.83c3.44,2.12,11.92,3.94,14.39-0.39C813.96,181.57,808.37,179.55,805.53,177.2z M793.85,145.54
		c-4.73,0.47-6.48,9.31-6.51,12.85c-0.04,3.57,1.91,9.84,6.37,5.57c3.17-3.03,2.81-9.37,3.83-13.32
		C794.53,149.83,797.89,145.15,793.85,145.54z M655.53,440.57c-5.3-7.78-10.02-15.97-17.03-22.38c-2.49-2.28-4.52-11.83-8.46-10.61
		c-2.72,0.84-4.9,7.27-5.99,9.48c-2.42,4.89-4.49,9.94-6.5,15.01c-2.85,7.24-19.97,41.89,0.64,36.84c8.19-2,15.21-5.89,23.82-6.26
		c5.47-0.24,14.57,0.88,18.48-4.02C665.09,452.88,658.76,445.31,655.53,440.57z M597.84,312.5c-2.17-1.6-7.75-8.09-10.72-7.51
		c-1.9,0.38-4.05,4.43-5.82,5.56c-7.57,4.88-10.46,15.85-13.51,24.04c-2.15,5.76-6.1,14.66,0.41,19.2c3.94,2.75,9.79,1.93,14.2,1.24
		c5.55-0.88,10.92-2.61,16.44-3.6c4.27-0.77,8.66-1.18,12.98-1.53c3.37-0.26,8.25,0.58,11.23-1.27
		C637.46,339.67,603.19,316.45,597.84,312.5z M431.15,405.49c-4.37-6.81-10.04-12.71-14.51-19.45c-2.06-3.11-5.76-11.29-10.72-9.58
		c-4.18,1.44-6.93,8.66-8.77,12.2c-2.65,5.11-5.4,10.21-7.44,15.6c-1.91,5.07-6.22,13-0.26,16.88c2.22,1.45,5.38,1.25,7.9,1.39
		c4,0.2,7.98,0.69,11.99,0.79c4.24,0.1,8.43-0.27,12.66-0.34c2.74-0.05,5.82,0.42,8.43-0.66
		C437.88,419.25,434.25,410.32,431.15,405.49z M503.53,478.75c-0.09-4.37-0.88-9-0.51-13.35c0.27-3.19,0.06-9.66-5.3-9.43
		c-8.23,0.36-15.97,4.72-23.94,6.53c-5.59,1.26-15.33,2.76-14.43,10.74c0.8,7.06,13.16,11.53,18.02,15.25
		c5.29,4.05,10.7,10.35,17.27,12.16C504.86,503.46,503.65,484.53,503.53,478.75z M431.15,405.49c-4.37-6.81-10.04-12.71-14.51-19.45
		c-2.06-3.11-5.76-11.29-10.72-9.58c-4.18,1.44-6.93,8.66-8.77,12.2c-2.65,5.11-5.4,10.21-7.44,15.6c-1.91,5.07-6.22,13-0.26,16.88
		c2.22,1.45,5.38,1.25,7.9,1.39c4,0.2,7.98,0.69,11.99,0.79c4.24,0.1,8.43-0.27,12.66-0.34c2.74-0.05,5.82,0.42,8.43-0.66
		C437.88,419.25,434.25,410.32,431.15,405.49z M503.53,478.75c-0.09-4.37-0.88-9-0.51-13.35c0.27-3.19,0.06-9.66-5.3-9.43
		c-8.23,0.36-15.97,4.72-23.94,6.53c-5.59,1.26-15.33,2.76-14.43,10.74c0.8,7.06,13.16,11.53,18.02,15.25
		c5.29,4.05,10.7,10.35,17.27,12.16C504.86,503.46,503.65,484.53,503.53,478.75z M597.84,312.5c-2.17-1.6-7.75-8.09-10.72-7.51
		c-1.9,0.38-4.05,4.43-5.82,5.56c-7.57,4.88-10.46,15.85-13.51,24.04c-2.15,5.76-6.1,14.66,0.41,19.2c3.94,2.75,9.79,1.93,14.2,1.24
		c5.55-0.88,10.92-2.61,16.44-3.6c4.27-0.77,8.66-1.18,12.98-1.53c3.37-0.26,8.25,0.58,11.23-1.27
		C637.46,339.67,603.19,316.45,597.84,312.5z M655.53,440.57c-5.3-7.78-10.02-15.97-17.03-22.38c-2.49-2.28-4.52-11.83-8.46-10.61
		c-2.72,0.84-4.9,7.27-5.99,9.48c-2.42,4.89-4.49,9.94-6.5,15.01c-2.85,7.24-19.97,41.89,0.64,36.84c8.19-2,15.21-5.89,23.82-6.26
		c5.47-0.24,14.57,0.88,18.48-4.02C665.09,452.88,658.76,445.31,655.53,440.57z M793.85,145.54c-4.73,0.47-6.48,9.31-6.51,12.85
		c-0.04,3.57,1.91,9.84,6.37,5.57c3.17-3.03,2.81-9.37,3.83-13.32C794.53,149.83,797.89,145.15,793.85,145.54z M805.53,177.2
		c-4.07-3.38-2.65-6.21-1.05-10.6c0.99-2.68,6.83-15.96,3.41-18.03c-6.1-3.7-12.7,21.07-13.42,24.25
		c-1.11,4.84-2.58,10.75,2.43,13.83c3.44,2.12,11.92,3.94,14.39-0.39C813.96,181.57,808.37,179.55,805.53,177.2z M821.71,190.34
		c-2.25,0.03-4.73,3.11-6.65,4.07c-3.36,1.69-6.88,1.45-10.43,2.02c-7.4,1.19-2.29,8.37,2.44,10c5.98,2.05,12.78-0.1,15.96-5.67
		C824.54,198.12,827.22,190.26,821.71,190.34z M822.21,150.79c-3.6,2.18-7.88,21.51-1.51,21.15c5.24-0.31,6.17-8.35,6.6-12.12
		C827.67,156.62,827.98,147.31,822.21,150.79z M822.21,150.79c-3.6,2.18-7.88,21.51-1.51,21.15c5.24-0.31,6.17-8.35,6.6-12.12
		C827.67,156.62,827.98,147.31,822.21,150.79z M821.71,190.34c-2.25,0.03-4.73,3.11-6.65,4.07c-3.36,1.69-6.88,1.45-10.43,2.02
		c-7.4,1.19-2.29,8.37,2.44,10c5.98,2.05,12.78-0.1,15.96-5.67C824.54,198.12,827.22,190.26,821.71,190.34z M805.53,177.2
		c-4.07-3.38-2.65-6.21-1.05-10.6c0.99-2.68,6.83-15.96,3.41-18.03c-6.1-3.7-12.7,21.07-13.42,24.25
		c-1.11,4.84-2.58,10.75,2.43,13.83c3.44,2.12,11.92,3.94,14.39-0.39C813.96,181.57,808.37,179.55,805.53,177.2z M793.85,145.54
		c-4.73,0.47-6.48,9.31-6.51,12.85c-0.04,3.57,1.91,9.84,6.37,5.57c3.17-3.03,2.81-9.37,3.83-13.32
		C794.53,149.83,797.89,145.15,793.85,145.54z M655.53,440.57c-5.3-7.78-10.02-15.97-17.03-22.38c-2.49-2.28-4.52-11.83-8.46-10.61
		c-2.72,0.84-4.9,7.27-5.99,9.48c-2.42,4.89-4.49,9.94-6.5,15.01c-2.85,7.24-19.97,41.89,0.64,36.84c8.19-2,15.21-5.89,23.82-6.26
		c5.47-0.24,14.57,0.88,18.48-4.02C665.09,452.88,658.76,445.31,655.53,440.57z M597.84,312.5c-2.17-1.6-7.75-8.09-10.72-7.51
		c-1.9,0.38-4.05,4.43-5.82,5.56c-7.57,4.88-10.46,15.85-13.51,24.04c-2.15,5.76-6.1,14.66,0.41,19.2c3.94,2.75,9.79,1.93,14.2,1.24
		c5.55-0.88,10.92-2.61,16.44-3.6c4.27-0.77,8.66-1.18,12.98-1.53c3.37-0.26,8.25,0.58,11.23-1.27
		C637.46,339.67,603.19,316.45,597.84,312.5z M431.15,405.49c-4.37-6.81-10.04-12.71-14.51-19.45c-2.06-3.11-5.76-11.29-10.72-9.58
		c-4.18,1.44-6.93,8.66-8.77,12.2c-2.65,5.11-5.4,10.21-7.44,15.6c-1.91,5.07-6.22,13-0.26,16.88c2.22,1.45,5.38,1.25,7.9,1.39
		c4,0.2,7.98,0.69,11.99,0.79c4.24,0.1,8.43-0.27,12.66-0.34c2.74-0.05,5.82,0.42,8.43-0.66
		C437.88,419.25,434.25,410.32,431.15,405.49z M503.53,478.75c-0.09-4.37-0.88-9-0.51-13.35c0.27-3.19,0.06-9.66-5.3-9.43
		c-8.23,0.36-15.97,4.72-23.94,6.53c-5.59,1.26-15.33,2.76-14.43,10.74c0.8,7.06,13.16,11.53,18.02,15.25
		c5.29,4.05,10.7,10.35,17.27,12.16C504.86,503.46,503.65,484.53,503.53,478.75z M431.15,405.49c-4.37-6.81-10.04-12.71-14.51-19.45
		c-2.06-3.11-5.76-11.29-10.72-9.58c-4.18,1.44-6.93,8.66-8.77,12.2c-2.65,5.11-5.4,10.21-7.44,15.6c-1.91,5.07-6.22,13-0.26,16.88
		c2.22,1.45,5.38,1.25,7.9,1.39c4,0.2,7.98,0.69,11.99,0.79c4.24,0.1,8.43-0.27,12.66-0.34c2.74-0.05,5.82,0.42,8.43-0.66
		C437.88,419.25,434.25,410.32,431.15,405.49z M503.53,478.75c-0.09-4.37-0.88-9-0.51-13.35c0.27-3.19,0.06-9.66-5.3-9.43
		c-8.23,0.36-15.97,4.72-23.94,6.53c-5.59,1.26-15.33,2.76-14.43,10.74c0.8,7.06,13.16,11.53,18.02,15.25
		c5.29,4.05,10.7,10.35,17.27,12.16C504.86,503.46,503.65,484.53,503.53,478.75z M597.84,312.5c-2.17-1.6-7.75-8.09-10.72-7.51
		c-1.9,0.38-4.05,4.43-5.82,5.56c-7.57,4.88-10.46,15.85-13.51,24.04c-2.15,5.76-6.1,14.66,0.41,19.2c3.94,2.75,9.79,1.93,14.2,1.24
		c5.55-0.88,10.92-2.61,16.44-3.6c4.27-0.77,8.66-1.18,12.98-1.53c3.37-0.26,8.25,0.58,11.23-1.27
		C637.46,339.67,603.19,316.45,597.84,312.5z M655.53,440.57c-5.3-7.78-10.02-15.97-17.03-22.38c-2.49-2.28-4.52-11.83-8.46-10.61
		c-2.72,0.84-4.9,7.27-5.99,9.48c-2.42,4.89-4.49,9.94-6.5,15.01c-2.85,7.24-19.97,41.89,0.64,36.84c8.19-2,15.21-5.89,23.82-6.26
		c5.47-0.24,14.57,0.88,18.48-4.02C665.09,452.88,658.76,445.31,655.53,440.57z M793.85,145.54c-4.73,0.47-6.48,9.31-6.51,12.85
		c-0.04,3.57,1.91,9.84,6.37,5.57c3.17-3.03,2.81-9.37,3.83-13.32C794.53,149.83,797.89,145.15,793.85,145.54z M805.53,177.2
		c-4.07-3.38-2.65-6.21-1.05-10.6c0.99-2.68,6.83-15.96,3.41-18.03c-6.1-3.7-12.7,21.07-13.42,24.25
		c-1.11,4.84-2.58,10.75,2.43,13.83c3.44,2.12,11.92,3.94,14.39-0.39C813.96,181.57,808.37,179.55,805.53,177.2z M821.71,190.34
		c-2.25,0.03-4.73,3.11-6.65,4.07c-3.36,1.69-6.88,1.45-10.43,2.02c-7.4,1.19-2.29,8.37,2.44,10c5.98,2.05,12.78-0.1,15.96-5.67
		C824.54,198.12,827.22,190.26,821.71,190.34z M822.21,150.79c-3.6,2.18-7.88,21.51-1.51,21.15c5.24-0.31,6.17-8.35,6.6-12.12
		C827.67,156.62,827.98,147.31,822.21,150.79z M822.21,150.79c-3.6,2.18-7.88,21.51-1.51,21.15c5.24-0.31,6.17-8.35,6.6-12.12
		C827.67,156.62,827.98,147.31,822.21,150.79z M821.71,190.34c-2.25,0.03-4.73,3.11-6.65,4.07c-3.36,1.69-6.88,1.45-10.43,2.02
		c-7.4,1.19-2.29,8.37,2.44,10c5.98,2.05,12.78-0.1,15.96-5.67C824.54,198.12,827.22,190.26,821.71,190.34z M805.53,177.2
		c-4.07-3.38-2.65-6.21-1.05-10.6c0.99-2.68,6.83-15.96,3.41-18.03c-6.1-3.7-12.7,21.07-13.42,24.25
		c-1.11,4.84-2.58,10.75,2.43,13.83c3.44,2.12,11.92,3.94,14.39-0.39C813.96,181.57,808.37,179.55,805.53,177.2z M793.85,145.54
		c-4.73,0.47-6.48,9.31-6.51,12.85c-0.04,3.57,1.91,9.84,6.37,5.57c3.17-3.03,2.81-9.37,3.83-13.32
		C794.53,149.83,797.89,145.15,793.85,145.54z M655.53,440.57c-5.3-7.78-10.02-15.97-17.03-22.38c-2.49-2.28-4.52-11.83-8.46-10.61
		c-2.72,0.84-4.9,7.27-5.99,9.48c-2.42,4.89-4.49,9.94-6.5,15.01c-2.85,7.24-19.97,41.89,0.64,36.84c8.19-2,15.21-5.89,23.82-6.26
		c5.47-0.24,14.57,0.88,18.48-4.02C665.09,452.88,658.76,445.31,655.53,440.57z M597.84,312.5c-2.17-1.6-7.75-8.09-10.72-7.51
		c-1.9,0.38-4.05,4.43-5.82,5.56c-7.57,4.88-10.46,15.85-13.51,24.04c-2.15,5.76-6.1,14.66,0.41,19.2c3.94,2.75,9.79,1.93,14.2,1.24
		c5.55-0.88,10.92-2.61,16.44-3.6c4.27-0.77,8.66-1.18,12.98-1.53c3.37-0.26,8.25,0.58,11.23-1.27
		C637.46,339.67,603.19,316.45,597.84,312.5z M431.15,405.49c-4.37-6.81-10.04-12.71-14.51-19.45c-2.06-3.11-5.76-11.29-10.72-9.58
		c-4.18,1.44-6.93,8.66-8.77,12.2c-2.65,5.11-5.4,10.21-7.44,15.6c-1.91,5.07-6.22,13-0.26,16.88c2.22,1.45,5.38,1.25,7.9,1.39
		c4,0.2,7.98,0.69,11.99,0.79c4.24,0.1,8.43-0.27,12.66-0.34c2.74-0.05,5.82,0.42,8.43-0.66
		C437.88,419.25,434.25,410.32,431.15,405.49z M503.53,478.75c-0.09-4.37-0.88-9-0.51-13.35c0.27-3.19,0.06-9.66-5.3-9.43
		c-8.23,0.36-15.97,4.72-23.94,6.53c-5.59,1.26-15.33,2.76-14.43,10.74c0.8,7.06,13.16,11.53,18.02,15.25
		c5.29,4.05,10.7,10.35,17.27,12.16C504.86,503.46,503.65,484.53,503.53,478.75z M431.15,405.49c-4.37-6.81-10.04-12.71-14.51-19.45
		c-2.06-3.11-5.76-11.29-10.72-9.58c-4.18,1.44-6.93,8.66-8.77,12.2c-2.65,5.11-5.4,10.21-7.44,15.6c-1.91,5.07-6.22,13-0.26,16.88
		c2.22,1.45,5.38,1.25,7.9,1.39c4,0.2,7.98,0.69,11.99,0.79c4.24,0.1,8.43-0.27,12.66-0.34c2.74-0.05,5.82,0.42,8.43-0.66
		C437.88,419.25,434.25,410.32,431.15,405.49z M503.53,478.75c-0.09-4.37-0.88-9-0.51-13.35c0.27-3.19,0.06-9.66-5.3-9.43
		c-8.23,0.36-15.97,4.72-23.94,6.53c-5.59,1.26-15.33,2.76-14.43,10.74c0.8,7.06,13.16,11.53,18.02,15.25
		c5.29,4.05,10.7,10.35,17.27,12.16C504.86,503.46,503.65,484.53,503.53,478.75z M597.84,312.5c-2.17-1.6-7.75-8.09-10.72-7.51
		c-1.9,0.38-4.05,4.43-5.82,5.56c-7.57,4.88-10.46,15.85-13.51,24.04c-2.15,5.76-6.1,14.66,0.41,19.2c3.94,2.75,9.79,1.93,14.2,1.24
		c5.55-0.88,10.92-2.61,16.44-3.6c4.27-0.77,8.66-1.18,12.98-1.53c3.37-0.26,8.25,0.58,11.23-1.27
		C637.46,339.67,603.19,316.45,597.84,312.5z M655.53,440.57c-5.3-7.78-10.02-15.97-17.03-22.38c-2.49-2.28-4.52-11.83-8.46-10.61
		c-2.72,0.84-4.9,7.27-5.99,9.48c-2.42,4.89-4.49,9.94-6.5,15.01c-2.85,7.24-19.97,41.89,0.64,36.84c8.19-2,15.21-5.89,23.82-6.26
		c5.47-0.24,14.57,0.88,18.48-4.02C665.09,452.88,658.76,445.31,655.53,440.57z M793.85,145.54c-4.73,0.47-6.48,9.31-6.51,12.85
		c-0.04,3.57,1.91,9.84,6.37,5.57c3.17-3.03,2.81-9.37,3.83-13.32C794.53,149.83,797.89,145.15,793.85,145.54z M805.53,177.2
		c-4.07-3.38-2.65-6.21-1.05-10.6c0.99-2.68,6.83-15.96,3.41-18.03c-6.1-3.7-12.7,21.07-13.42,24.25
		c-1.11,4.84-2.58,10.75,2.43,13.83c3.44,2.12,11.92,3.94,14.39-0.39C813.96,181.57,808.37,179.55,805.53,177.2z M821.71,190.34
		c-2.25,0.03-4.73,3.11-6.65,4.07c-3.36,1.69-6.88,1.45-10.43,2.02c-7.4,1.19-2.29,8.37,2.44,10c5.98,2.05,12.78-0.1,15.96-5.67
		C824.54,198.12,827.22,190.26,821.71,190.34z M822.21,150.79c-3.6,2.18-7.88,21.51-1.51,21.15c5.24-0.31,6.17-8.35,6.6-12.12
		C827.67,156.62,827.98,147.31,822.21,150.79z M822.21,150.79c-3.6,2.18-7.88,21.51-1.51,21.15c5.24-0.31,6.17-8.35,6.6-12.12
		C827.67,156.62,827.98,147.31,822.21,150.79z M821.71,190.34c-2.25,0.03-4.73,3.11-6.65,4.07c-3.36,1.69-6.88,1.45-10.43,2.02
		c-7.4,1.19-2.29,8.37,2.44,10c5.98,2.05,12.78-0.1,15.96-5.67C824.54,198.12,827.22,190.26,821.71,190.34z M811.29,186.26
		c2.67-4.69-2.92-6.71-5.76-9.06c-4.07-3.38-2.65-6.21-1.05-10.6c0.99-2.68,6.83-15.96,3.41-18.03c-6.1-3.7-12.7,21.07-13.42,24.25
		c-1.11,4.84-2.58,10.75,2.43,13.83C800.34,188.77,808.82,190.59,811.29,186.26z M797.54,150.64c-3.01-0.81,0.35-5.49-3.69-5.1
		c-4.73,0.47-6.48,9.31-6.51,12.85c-0.04,3.57,1.91,9.84,6.37,5.57C796.88,160.93,796.52,154.59,797.54,150.64z M655.53,440.57
		c-5.3-7.78-10.02-15.97-17.03-22.38c-2.49-2.28-4.52-11.83-8.46-10.61c-2.72,0.84-4.9,7.27-5.99,9.48
		c-2.42,4.89-4.49,9.94-6.5,15.01c-2.85,7.24-19.97,41.89,0.64,36.84c8.19-2,15.21-5.89,23.82-6.26c5.47-0.24,14.57,0.88,18.48-4.02
		C665.09,452.88,658.76,445.31,655.53,440.57z M623.05,348.63c14.41-8.96-19.86-32.18-25.21-36.13c-2.17-1.6-7.75-8.09-10.72-7.51
		c-1.9,0.38-4.05,4.43-5.82,5.56c-7.57,4.88-10.46,15.85-13.51,24.04c-2.15,5.76-6.1,14.66,0.41,19.2c3.94,2.75,9.79,1.93,14.2,1.24
		c5.55-0.88,10.92-2.61,16.44-3.6c4.27-0.77,8.66-1.18,12.98-1.53C615.19,349.64,620.07,350.48,623.05,348.63z M416.64,386.04
		c-2.06-3.11-5.76-11.29-10.72-9.58c-4.18,1.44-6.93,8.66-8.77,12.2c-2.65,5.11-5.4,10.21-7.44,15.6c-1.91,5.07-6.22,13-0.26,16.88
		c2.22,1.45,5.38,1.25,7.9,1.39c4,0.2,7.98,0.69,11.99,0.79c4.24,0.1,8.43-0.27,12.66-0.34c2.74-0.05,5.82,0.42,8.43-0.66
		c7.45-3.07,3.82-12,0.72-16.83C426.78,398.68,421.11,392.78,416.64,386.04z M503.53,478.75c-0.09-4.37-0.88-9-0.51-13.35
		c0.27-3.19,0.06-9.66-5.3-9.43c-8.23,0.36-15.97,4.72-23.94,6.53c-5.59,1.26-15.33,2.76-14.43,10.74
		c0.8,7.06,13.16,11.53,18.02,15.25c5.29,4.05,10.7,10.35,17.27,12.16C504.86,503.46,503.65,484.53,503.53,478.75z M931.08,497.9
		c0.72-7.53,2.75-14.47,1.11-22.05c-1.84-8.55-0.38-18.03-1.24-26.86c-0.99-10.11-2.95-20.1-3.86-30.2
		c-0.79-8.71-4.07-17.29-5.83-25.88c-0.88-4.27-1.59-8.57-2.46-12.83c-0.81-3.99-3.4-6.65-3.49-10.75c-0.05-2.3,0.37-3.41-0.7-5.51
		c-0.78-1.54-2.05-2.7-2.73-4.42c-1.75-4.43-2.58-9.16-3.53-13.81c-1.7-8.26-3.21-16.69-5.12-24.89
		c-2.27-9.76-6.95-18.97-10.52-28.3c-2.6-6.8-4.38-13.87-6.97-20.67c-1.42-3.71-4.62-13.51-10.02-12.98
		c1.74-3.18,0.39-4.79-1.44-8.13c-0.36,0.85-0.71,1.7-1.07,2.55c-0.66-3.75-3.03-5.14-5.48-7.71c-1.49-1.55-2.63-3.24-4.32-4.59
		c-1.25-0.99-2.69-1.47-3.49-2.92c-1.15-2.11-0.56-5.97-0.69-8.34c-0.22-3.87-0.36-7.7,0.4-11.54c0.56-2.81,1.57-6.47,4.46-7.71
		c3.16-1.36,7.3-0.25,10.73-1.58c8.05-3.11,13.91-11.29,13.57-19.99c-0.34-8.63-9.12-14.75-7.03-23.14
		c2.53-10.2,7.39-19.96,10.74-29.92c6.81-20.24,12.86-41.12,17.82-61.89c2.24-9.4,3.21-19.7,0.26-29.06
		c-2.55-8.11-7.98-15.08-13.92-21c-12.04-11.98-27.55-23.3-45.14-23.77L850.47,0h-0.64c-20.82,0.23-30.28,19.62-39.74,35.48
		c-11.06,18.51-20.33,38.26-27.54,58.59c-3.96,11.15-5.78,22.26-7.61,33.89c-0.83,5.28-1.49,19.78-7.35,21.71
		c-1.32,0.44-3.3-0.13-4.8,0.31c-2.11,0.61-3.83,1.82-5.29,3.45c-3.06,3.42-4.43,8.39-4.46,12.91c-0.03,4,0.61,8.74,4.16,11.09
		c0.92,0.61,7.27,3.88,7.46,2.89c-0.07,1.79,0.77,3.62,1.04,5.38c0.49,3.17,0.5,6.38,1.08,9.55c1.07,5.9,2.34,12.31,4.79,17.81
		c3.88,8.72,12.22,11.57,20.73,14.21c-1.53,2.54-2.49,7-5.05,8.71c-1.79,1.19-3.3,0.44-5.3,0.16c-2.72-0.39-5.35-0.32-8.11-0.19
		c-11.96,0.52-22.72-1.03-34.31-3.95c-23.09-5.82-45.84-11.19-68.45-18.8c-44.2-14.89-89.21-28.38-131.13-49.12
		c-9.99-4.94-19.25-10.12-30.03-13.22c-9.51-2.73-17.99-7.31-27.41-10.09c-8.89-2.61-16.56-10.97-23.55-16.86
		c-8.23-6.93-14.36-16.12-22.15-23.54c-8.05-7.66-16.76-14.7-24.92-22.28c-8.7-8.08-18.38-15.27-28.19-21.94
		c-18.56-12.61-38-20.96-60.63-21.39c-12.61-0.24-24.77-0.52-37,3.06c-9.98,2.91-22.66,6.94-29.92,14.79
		c-6.78,7.35-7.84,16.93,0.75,23.16c8.98,6.51,20.29,9,30.5,12.9c-8.32,4.7-17.33,9.2-23.65,16.58c-4.79,5.6-9.09,15.84-3.39,22.29
		c8.56,9.68,28.57,4.35,39.42,2.64c-5.56,6.47-11.9,15.72-8.87,24.68c2.31,6.8,9.64,8.85,16.16,9.11
		c17.98,0.71,34.71-10.08,49.95-18.09c2.95-1.56,8.21-5.08,11.72-4.82c2.19,0.16,1.69,0.91,2.41,3.11c0.65,1.97,1.49,3.86,2.51,5.67
		c3.59,6.37,9.17,11.36,15.11,15.51c6.18,4.33,12.89,7.81,19.6,11.23c4.28,2.19,15.89,6.07,16.97,11.37
		c0.64,3.16-3.57,8.68-4.65,11.59c-1.99,5.3-2.16,10.19-2.27,15.77c-0.1,4.93-1.05,10.46,1.2,15.08c2,4.09,6.14,6.35,9.61,9.01
		c-15.89,9.37-32.84,16.95-48.06,27.45c-14.62,10.07-28.71,22.34-40.19,35.9c-11.79,13.92-18.93,30.39-24.7,47.55
		c-5.98,17.81-12.57,36.05-15.33,54.7c-1.3,8.77-2.4,17.9-2.37,26.77c0.02,5.37,1.02,11.43-5.01,13.39
		c-5.67,1.85-12.01,1.48-17.86,2.49c-9.97,1.72-19.82,4.02-29.68,6.26c-10.04,2.27-20.09,4.53-30.07,7.04
		c-8.87,2.22-18.1,3.75-26.71,6.87c-6.3,2.29-14.07,4.76-19.4,8.91c-2.85,2.22-4.56,5.48-4.56,9.14c0,1.7,0.51,3.26,0.36,4.97
		c-0.13,1.5-0.64,2.64-0.55,4.18c0.16,2.88,2.19,6.49,0.42,9.27c-1.61,2.52-5.37,2.6-8.04,2.88c-7.09,0.73-14.17,1.36-21.22,2.52
		c-5.78,0.95-10.92,2.78-12.8-3.85c-1.93-6.75-3.73-13.03-6.55-19.54c-7.15-16.53-19.9-29.79-32.35-42.56
		c-6.49-6.65-13.5-12.79-21-18.27c-7.41-5.42-14.59-8.85-23.14-11.99c-3.67-1.35-6.99-3.03-10.04-5.5
		c-2.78-2.26-5.23-5.27-8.96-5.91c-6.2-1.07-11.68,4.1-15.01,8.68c-3.72,5.14-6.56,11.82-6.4,18.26
		c0.23,7.47,5.72,13.25,10.52,18.43c12.63,13.65,23.96,27.93,32.1,44.73c3.91,8.07,7.69,16.1,12.19,23.87
		c4.63,8.02,6.92,16.34,9.01,25.3c1.71,7.32,2.42,14.91,4.21,22.16c2.11,8.59,7.64,7.9,15.17,7.95c17.85,0.1,36.62,1.77,53.73-4.52
		c3.8-1.4,5.82-4.12,9.25-5.91c3.18-1.65,7.02-1.28,10.5-1.28c3.05,0.01,6.08-0.64,9.09-0.6c4.07,0.05,4.29,1.31,5.97,4.12
		c1.22,2.05,2.8,3.92,5.32,4.78c2.96,1.01,3.93-0.97,6.78-1.79c3.64-1.06,7.37,0.67,11.09,0.24c3.09-0.36,5.81-1.91,8.92-1.79
		c1.87,0.08,9.02,3.83,6.97-0.69c4.33,2.82,8.84,1.22,13.6,1.43c-1-2.62,1.6-1.25,3.35-2.1c1.58-0.77,0.94-2.29,3.43-1.74
		c0.42,0.1,0.35,1.21,0.61,1.32c1.1,0.44,2.07,0.81,3.36,0.87c5.09,0.23,9.88-2.16,15-2.11c1.92,0.02,3.64,0.23,5.48-0.46
		c0.36-0.13,2.74-1.5,2.24-1.5c3.48-0.34,5.79,1.82,8.51-1.45c2.72,3.94,11.04,1.13,14.91,0.92c9.86-0.53,19.92,0.65,29.8,0.67
		c19.45,0.05,38.9-1.1,58.35-1.62c19.32-0.5,38.21-1.8,57.37-4.16c8.6-1.06,16.95,0.09,25.54,0.14c3.78,0.03,7.72-1.29,11.46-0.86
		c3.59,0.42,6.5,3,9.84,4.22c17.39,6.34,36.82-1.46,53.94-5.01c-0.57,7.8-12.76,18.83-3.18,25.46c8.04,5.57,20.46-4.02,28.37-6.12
		c-2.51,8.67-5.75,22.15,7.95,21.86c11.29-0.27,23.59-6.32,34.07-10.06c24.16-8.63,47.41-18.85,72.64-24.03
		c12.42-2.55,25.28-2.75,37.6-5.39c4.2-0.89,8.69-3.28,12.73-0.83c2.44,1.48,3.12,2.96,6.24,3.45c2.9,0.45,6.06,0.04,9,0.12
		c27.35,0.73,55.13,2.16,82.46,0.46c13.97-0.87,27.63,0.07,41.58-1.91c7.14-1.02,13.94-3.04,20.98-4.49
		c3.05-0.64,6.11-1.05,9.23-0.79c1.25,0.1,2.74,0.69,4,0.52c0.39-0.05,2.44-0.81,2.44-0.82c3.57,0.28,6.77,3.72,8.4-1.26
		c2.74,4.85,9.01,0.32,12.49-0.95c5.14-1.88,8.92-2.53,11.4-8c2.19-4.83,2.94-10.46,4.06-15.62c0.58-2.67,1.29-5.5,1.23-8.25
		c-0.07-2.95-1.31-4.22-2.2-6.91C933.84,511.2,930.89,499.81,931.08,497.9z M765.82,170.72c-7.94-3.08-5.68-11.78,2.27-12.44
		L765.82,170.72z M100.69,524.41c-3.12,2.03-9.92,1.31-13.03-0.46c-5.53-3.15-6.49-10.4-5.5-16.13c1.16-6.68,7.25-10.65,8.8-17.01
		c1.59-6.53-4.36-11.13-10.14-12.03c-2.76-0.43-9.06,0.52-5.96-3.87c2.9-4.11,9.2-4.81,13.46-2.97c5.94,2.57,9.2,9.59,9.56,15.77
		c0.43,7.45-4.47,12.45-7,18.97c-2.07,5.35,1.31,6.45,5.5,8.48C99.54,516.7,105.47,521.31,100.69,524.41z M167.53,546
		c-1.05,0.88-3.42-0.2-4.59-0.19c-1.98,0-4.06,0.49-6.01,0.76c-4.94,0.68-10.01,1.49-15.02,1.11c-4.29-0.33-7.92-1.43-9.47-5.72
		c-1.35-3.75-2.18-9.81-0.51-13.57c2.19-4.95,9.16-3.98,13.65-4.98c3.83-0.85,7.61-1.95,11.36-3.09c1.76-0.53,5.4-2.43,7.42-2.06
		c3.23,0.58,2.19,4.34,2.33,7.1c0.2,3.85,0.93,7.64,1.2,11.48C167.99,538.39,168.88,544.86,167.53,546z M865.94,104.44
		c2.08-2.85,6.76-1.67,8.65-4.23c1.44-1.96-0.29-4.8-0.63-6.91c-0.41-2.57-0.65-6.15,0.72-8.52c2.18-3.77,6.98-2.9,10.55-4.05
		c-1.74-5.94-4.86-11.9-1.96-17.95c1.7-3.53,5.1-9.54,9.28-6.13c1.21,0.99,3.52,3.81,3.31,5.53c-0.3,2.55-2.42,1.78-3.82,3
		c-3.53,3.08-0.27,8.99,0.82,12.6c1.39,4.61,1.83,8.98-3.65,10.51c-6.35,1.76-9.44,0.45-7.68,8.45c0.53,2.36,0.74,4.09,0.33,6.28
		c-0.45,2.37-0.79,2.59-2.74,3.7c-3.63,2.07-8.95,1.37-8,6.51c0.38,2.05,4.1,13.3-2.13,8.71
		C864.56,118.68,862.78,108.77,865.94,104.44z M647.47,314.43c16.48,4.99,32.71,5.24,49.63,5.25h4.25
		c-4.14,14.78-8.8,29.53-12.56,44.4c-1.02,4.03-2.95,22.59-9.86,14.08c-3.03-3.72-4.9-8.99-7.39-13.11
		c-3.81-6.29-7.62-12.57-11.54-18.79c-8.04-12.74-16.58-25.21-26.41-36.64C638.55,309.96,642.81,313.02,647.47,314.43z
		 M426.44,167.29c-14.86-8.75-33.96-15.21-43.85-30.36c-3.32-5.1-2.95-14.53-11.4-12.85c-3.58,0.72-6.77,3.12-10.01,4.69
		c-4.65,2.25-9.46,4.2-14.2,6.23c-10.83,4.64-21.41,9.18-33.14,11.08c-1.76,0.29-8.86,1.87-9.16-1.27
		c-0.28-2.99,8.72-6.93,10.65-7.99c4.08-2.22,8.27-4.33,12.48-6.32c6.02-2.85,13.1-5.06,17.76-10.07
		c3.14-3.37,6.57-13.74-0.35-15.21c-3.27-0.7-6.48,2.05-9.37,3.16c-4.43,1.7-9.44,2.28-14.12,2.87c-9.54,1.2-19.11,2.07-28.7,2.64
		c-4.12,0.24-14.4,3.98-17.86,1.25c-2.4-1.88,2.13-4.32,4.16-5.67c3.23-2.14,6.8-3.74,10.42-5.1c7.01-2.63,14.34-4.21,21.58-6.07
		c4.75-1.23,9.22-2.6,14.15-2.75c4.21-0.13,7.56-0.05,10.45-3.49c5.31-6.33,4.2-15.47-5.1-14.96c-10.06,0.56-19.66-2-29.42-4.38
		c-11.17-2.71-21.96-6.79-32.52-11.3c19.12-8.62,41.56-9.42,62.02-6.16c21.59,3.43,39.84,15.43,57.06,28.23
		c18.59,13.8,34.05,31.3,52.69,45c7.6,5.59,14.67,9.5,23.61,12.12c8.51,2.5,7.35,8.98,3.47,15.77c-2.62,4.6-6.04,8.7-8.6,13.33
		c-2.2,3.98-3.85,8.58-7.28,11.71c-4.12,3.75-5.59-0.17-9.27-3.02C437.43,174.42,432.06,170.6,426.44,167.29z M306.12,468.32
		c16.3,1.72,32.37,3.33,48.78,3.37c4.18,0.01,8.37,0.02,12.55,0.22c0.85,0.04,5.65-0.11,6.29,0.45c0.23,0.21,0.45,3.4,0.5,3.74
		c0.74,4.8,2.28,10.05,1.05,14.89c-0.91,3.61-6.1,9.33-10.46,7.88c-3.79-1.26-4.5-10.88-6.85-14.1c-2.28-3.11-7.07-9.15-11.58-8.18
		c-2.81,0.61-4.21,3.84-4.99,6.24c-0.4,1.23-0.27,2.69-1.12,3.76c-1.17,1.47-2.74,0.84-3.98,1.97c-1.57,1.43-2.53,3.19-2.98,5.25
		c-0.64,2.95,0.37,3.13-2.77,3.26c-4.24,0.17-8.78-1.85-12.96-2.52c-10.83-1.74-23.51-3.06-34.36-1.25
		c-18.02,3-28.67,18.83-30.83,36.13c-0.49,3.87-0.38,7.55-0.03,11.41c0.45,4.92-0.79,5.92-5.36,6.32
		c-8.9,0.77-17.72,1.92-26.59,2.84c-1.43,0.15-5.87,1.14-7.02-0.23c-1.3-1.53-0.17-6.67-0.22-8.53c-0.16-5.95-2.84-12.18-4.97-17.67
		c-1.73-4.43-5.47-15.99-12.09-13.93c-6.55,2.03-9.77,12.22-13.47,17.28c0-6.24,0.53-12.46,0.58-18.7c0.04-4.9-0.82-9.27-1.25-14.07
		c-0.59-6.67,7.58-8.63,12.85-10.15c5.18-1.51,12.8-3.86,17.6-0.4c4.65,3.34,8.55,12.75,15.07,12.79
		c7.33,0.05,8.8-12.63,10.91-17.57c4.22-9.88,16.08-10.26,25.28-12.7c3.07-0.81,6.12-1.67,9.12-2.69c1.64-0.56,4.67-2.56,6.47-2.57
		c1.16-0.01,1.39-0.74,2.19,0.36c0.92,1.27-1.25,5.09-1.83,6.17c-2.73,5.06-11.04,14.25-3.69,19.6c5.21,3.79,14.43-1.4,19.9-2.28
		c3.87-0.62,9.44,0.9,12.52-2.12C312.54,478.51,308.49,472.18,306.12,468.32z M181.74,542.73c3.61,2.09,7.35,3.85,11.39,4.92
		c3.88,1.03,8.03,1.34,11.69,3.12c-3.82,3.4-13.17,2.85-17.95,2.43C180.96,552.67,181.74,547.22,181.74,542.73z M393.89,529.68
		c-9.31,3.71-17.3-1.18-25.98-4.07c-6.77-2.25-12.54-1.08-18.43,2.58c-2.81,1.74-11.93,7.08-10.33-0.9
		c0.93-4.62,6.6-9.09,10.46-11.39c7.62-4.54,16.33-2.97,24.07,0.34c7.73,3.3,14.14,6.2,21.89,1.63c2.95-1.75,8.55-5.94,10.46-1.06
		C408.8,523.89,398.53,527.83,393.89,529.68z M425.32,490.28c-1.3,3.15-2.73,2.67-5.51,2.2c-4.18-0.7-8.38-1.26-12.58-1.87
		c-5.72-0.84-12.96-0.54-18.33-2.75c-3.98-1.64-5.01-6.8-5.88-10.67c-1.18-5.32,1.37-5.86,6.52-5.55c4.17,0.25,7.99,0.88,12.16,0.54
		c4.75-0.39,9.51-0.94,14.29-0.91c2.9,0.02,6.76-0.29,8.24,2.49c0.99,1.86,0.82,5.54,1.1,7.63
		C425.7,484.12,426.4,487.65,425.32,490.28z M493.46,359.75c3.77,9.05,7.32,18.39,10.23,27.75c2.87,9.18,3.97,18.72,6.49,27.95
		c0.46,1.7,2.36,6.21,0.8,7.83c-1.17,1.2-5.24,0.48-6.66,0.42c-8.31-0.35-15.94,0.52-24.24,1.28c-11.47,1.06-22.93,1.36-33.79,5.66
		c2.18-21.32,4.96-42.62,9.71-63.54c1.55-6.84,2.08-15.51,5.36-21.77c3.64-6.95,13-4.73,18.86-1.89c3.32,1.61,5.92,4.01,8.04,6.83
		c0.02,0.02,0.03,0.04,0.05,0.06c0.3,0.4,0.59,0.81,0.87,1.22c0.01,0.01,0.01,0.02,0.02,0.03
		C490.91,354.11,492.28,356.92,493.46,359.75z M444.3,465.46c-0.38-3.53-0.69-7.13-0.81-10.67c-0.11-2.92-0.55-7.6,2.44-9.38
		c1.62-0.96,3.72-0.36,5.48-0.34c2.84,0.05,5.63-0.3,8.43-0.79c10.85-1.88,23-6.4,34.07-5.76c7,0.4,14.52,10.35,21.56,6.25
		c4.43,10.59,8.03,21.5,12.37,32.12c3.87,9.48,10.28,17.36,15.45,26.1c-20.29,5.39-39.39,14.05-58,23.66
		c-2.03-5.01-4.11-10.08-5.8-15.22c-1.05-3.17-1.42-7.32-3.48-10.04c-5.74-7.55-12.06,5.17-15.15,8.99
		c-4.03,4.99-12.21,11.54-8.33,18.83c3.32,6.25,12.68,5.46,18.59,6.75c-2.47,3.88-4.93,4.17-9.21,4.27
		c-4.17,0.1-8.8,1.41-12.92,0.64c-4.44-0.82-4.57-4.4-4.93-8.38c-0.55-5.93-1.6-11.78-2.41-17.68c-1.72-12.41-3.9-24.79-5.82-37.16
		c-0.35-2.24-2.15-8.49,1.76-8.75c3.55-0.24,4.46,6.35,6.31,8.37C446.51,474.38,444.66,468.83,444.3,465.46z M631.57,553.68
		c-12.67,4.18-24.65,10.22-37.26,14.6c-5.62,1.95-11.23,3.97-16.81,6.01c-4.25,1.56-10.3,4.7-14.93,3.03
		c3.52-8.72,14.05-10.43,20.42-16.1c5.73-5.09,6.98-16.56-3.4-14.03c-5.96,1.45-11.4,4.85-17.25,6.74
		c-1.71,0.55-15.49,5.99-16.45,4.34c8.59-6.03,22.88-10.01,22.21-22.95c-0.61-11.97-16.05-6.43-23.3-4.83
		c-6.51,1.43-13.13,2.31-19.67,3.6c-7.97,1.57-15.81,4.1-23.84,5.32c-1.58,0.24-11.55,3.5-11.85,2.29c-0.38-1.49,7.47-5.08,8.63-5.7
		c12.96-6.95,25.67-13.23,40-16.85c6.06-1.54,13.06-3.59,19.37-3.35c2.9,0.11,5.52,1.43,8.3,0.12c3.76-1.75,6.03-4.28,10.33-5.41
		c15.3-3.98,31.16-6.77,46.68-9.83c7.8-1.53,15.51-3.03,23.11-5.39c8.14-2.53,16.21-5.51,24.64-6.97c2.84-0.49,6.29-1.31,9.2-0.79
		c3.06,0.54,5.48,2.25,8.8,2.32c3.39,0.07,9.61-3.77,12-1.03c1.96,2.24,1.54,9.06,2.03,11.91c0.71,4.09,1.56,8.16,2.49,12.21
		c2.18,9.46,4.83,18.8,7.25,28.2C685.08,542.66,657.59,545.12,631.57,553.68z M811.76,430.17c-0.4,4.35-0.04,9.01-1.61,13.17
		c-2.19,5.8-6.38,4.93-11.49,6.09c-6.14,1.39-12.11,3.66-18.28,5.08c-6.94,1.6-13.9,3.1-20.87,4.53
		c-12.73,2.61-25.28,4.1-38.17,5.63c-5.89,0.7-11.51,1.9-17.14,3.76c-5.68,1.87-11.8,2.73-17.13,5.53
		c-1.83,0.96-3.69,1.75-5.57,2.41c-8.96,3.16-18.48,3.44-28.1,5.03c-13.55,2.24-27.1,4.43-40.66,6.62
		c-5.86,0.94-11.83,1.91-17.59,3.38c-2.48,0.64-5.09,1.9-7.67,2c-3.67,0.15-3.07-2.1-3.4-5.11c-0.45-4.07-0.93-10.62-4.87-13.08
		c-3.26-2.02-9.98,0.74-13.38,1.38c-3.59,0.67-11.55,4.14-15.06,2.31c-4.23-2.22-7.11-10.54-8.79-14.62
		c-5.45-13.28-10.62-27.48-14.14-41.4c1.95-0.8,9.35,17.22,12.23,19.08c5.04,3.27,12.14,2.12,16.42-1.9
		c4.95-4.62,6.23-12.36,8.81-18.37c3.22-7.53,7.13-14.8,10.19-22.4c1.88-4.65,4.02-11.49,0.29-15.83
		c-3.6-4.19-10.48-2.48-15.21-1.81c-7.74,1.08-15.42,2.32-23.13,3.62c-4.61,0.77-13.99,5.23-17.01,0.24
		c-1.38-2.29-1.35-5.53-1.87-8.08c-0.78-3.82-2.23-7.43-3.69-11.03c-5.18-12.78-9.87-33.04-23.21-40.01
		c-3.91-2.04-12.7-1.99-15.49-5.31c-0.9-1.07-0.61-3.69-0.84-4.97c-0.82-4.65-2.78-8.89-5.31-12.85
		c-4.13-6.48-10.06-10.93-14.7-16.87c-1.47-1.87-2.5-5.19-5.1-5.81c-3.03-0.72-5.26,2.16-6.82,4.3c-4.96,6.8-6.5,14.82-9.54,22.49
		c-2.44,6.15-8.43,15.22-3.77,21.8c5.67,8,19.42-2.54,27.09,0.07c-9.17,25.26-15.13,51.64-18.03,78.34
		c-1.22,11.23-3.46,23.03-3.24,34.32c0.14,7.29,1.41,15.47-8.23,13.94c-10.99-1.74-21.95-3.89-33.18-3.43
		c-5.67,0.23-9.13-0.07-12.92-4.68c-3.77-4.56-6.82-9.67-10.71-14.15c-8.78-10.09-10.23,8.5-11.87,13.68
		c-2.42,7.6-11.52,4.29-17.7,4.11c-6.55-0.19-13.22,0.34-19.76,0.62c-3.53,0.15-10.49,2.18-13.78,0.56
		c-3.53-1.74-1.78-7.59-1.52-10.73c0.38-4.55,0.33-10.37,2.92-14.34c2.72,3.8,6.54,13.18,12.63,11.55
		c5.35-1.43,6.56-11.39,7.63-15.78c1.54-6.39,4.61-13.16,4.14-19.81c-0.29-3.92-2.16-7.71-6.16-8.93c-4.16-1.26-8.54,0.88-12.75,0.6
		c2.7-11.27,5.97-22.18,11.6-32.38c6.61-11.97,13.93-23.57,21.13-35.19c1.66,9.17-2.25,18.76-0.16,28.04
		c3.37,14.99,15.28-2.06,20.6-6.34c5.69-4.59,11.77-8.67,17.59-13.09c4.51-3.41,9.52-7.97,7.86-14.23
		c-3.05-11.45-21.03-12.13-30.2-14.9c11.86-12.86,23.71-26.73,38.65-36.13c7.22-4.54,8.72-1.04,13.91,3.8
		c4.33,4.04,8.8,4.93,10.27-1.54c1.09-4.79-0.36-10.56,2.99-14.61c3.87-4.68,12.27-6.05,17.74-7.96c8.08-2.82,16.52-4.08,25.01-4.9
		c4.13-0.4,8.33-0.7,12.47-0.31l0.18,0.01c1.97,0.17,7.24,0.47,8.66,1.88v0.01c-0.63-0.5,0,3.08,0.01,3.13
		c1.35,4.16,4.63,7.65,6.91,11.32c4.98,8.05,10.09,16.03,15.09,24.07c2.72,4.39,8.66,13.92,14.37,7.87
		c3.89-4.11,4.48-11.4,6.15-16.63c1.45-4.56,3.75-15.4,9.57-16.18c6-0.79,14.34,7,19.09,10.05c9.09,5.84,18.3,11.56,26.58,18.54
		c8.24,6.94,14.76,15.06,21.22,23.64c7.56,10.03,15.33,19.82,23.11,29.67c3.82,4.83,7.04,10.04,10.59,15.06
		c3.12,4.42,6.9,8.54,8.83,13.67c-7.93,2.69-16.22,5.96-10.34,15.8c5.59,9.36,16.59,16.26,25.1,22.62
		c4.06,3.02,8.06,6.66,13.04,8.04c5.37,1.48,8.02,2.77,11.2,7.64c5.68,8.67,10.07,17.73,16.88,25.7c2.4,2.81,4.55,4.72,7.52,5.55
		h0.01c1.2,0.35,2.54,0.52,4.09,0.49c5.02-0.08,10.04-1.65,15-2.34c12.93-1.8,25.82-3.7,38.7-5.82c7.75-1.27,21.05-0.42,25.65-8.2
		c2.42-4.09,1.94-9.25,1.3-13.75c-0.92-6.41-2.1-12.8-3.2-19.18c-1.22-7.11-2.83-14.18-3.34-21.39c-0.48-6.82,0.65-13.72,0.38-20.37
		c-0.03-0.67-0.59,0.47-0.56-1.47c0.22-0.59,0.57-1.09,1.06-1.48c0.71-0.49,0.87-1.21,0.49-2.16c0.48-2.71-0.43-5.67-0.06-8.44
		c0.09-0.7,1.8-7.63,0.5-7.06c2.66-1.16,2.42-5.11,2.73-7.45c3.42,1.58,3.29,10.12,3.51,13.05c0.48,6.4,0.62,12.83,1.08,19.23
		C806.64,390.27,813.6,410.28,811.76,430.17z M854.28,200.82c-5.11,9.06-5.86,18.89-7.73,28.91c-0.48,2.52,0.36,3.08-2.36,3.99
		c-2.91,0.97-6.32-0.26-9.32-0.03c-9.38,0.7-18.46,6.92-26.32,11.58c-3.08,1.82-6.36,4.25-10.04,4.56
		c-1.62,0.13-3.17-0.19-4.71-0.68c-3.36-1.1-3.39-1.69-2.27-4.78c1.37-3.76,3.22-8.36,6.44-10.92c2.61-2.08,6.07-2.43,8.71-4.59
		c7.43-6.07,0.68-11.91-6.13-13.8c-7.08-1.96-16.43-1.62-21.16-8.24c-3.95-5.53-4.02-13.52-4.61-20.01
		c-0.9-9.74-0.32-19.2,1.5-28.81c1.86-9.85,5.01-19.34,7.26-29.09c0.67-2.9,0.79-7,3.38-8.98c2.82-2.16,7.63-0.64,10.38,0.92
		c7.43,4.21,10.81,12.88,18.74,16.72c7.49,3.64,16.23,3.06,24.24,1.98c5.79-0.78,14.98-2.6,19.2,2.92
		c2.77,3.63,1.54,8.82,0.48,12.84c-1.68,6.4-9.85,23.44,1.8,24.83c4.25,0.51,6.98,0.26,10.87,2.4c2.93,1.61,7.75,4.11,8.38,7.78
		c0.67,3.89-3.03,6.55-6.4,7.28c-4.14,0.89-4.81-0.53-6.68-3.44C863.47,187.2,856.8,196.35,854.28,200.82z M822.21,150.79
		c-3.6,2.18-7.88,21.51-1.51,21.15c5.24-0.31,6.17-8.35,6.6-12.12C827.67,156.62,827.98,147.31,822.21,150.79z M821.71,190.34
		c-2.25,0.03-4.73,3.11-6.65,4.07c-3.36,1.69-6.88,1.45-10.43,2.02c-7.4,1.19-2.29,8.37,2.44,10c5.98,2.05,12.78-0.1,15.96-5.67
		C824.54,198.12,827.22,190.26,821.71,190.34z M811.29,186.26c2.67-4.69-2.92-6.71-5.76-9.06c-4.07-3.38-2.65-6.21-1.05-10.6
		c0.99-2.68,6.83-15.96,3.41-18.03c-6.1-3.7-12.7,21.07-13.42,24.25c-1.11,4.84-2.58,10.75,2.43,13.83
		C800.34,188.77,808.82,190.59,811.29,186.26z M797.54,150.64c-3.01-0.81,0.35-5.49-3.69-5.1c-4.73,0.47-6.48,9.31-6.51,12.85
		c-0.04,3.57,1.91,9.84,6.37,5.57C796.88,160.93,796.52,154.59,797.54,150.64z M638.5,418.19c-2.49-2.28-4.52-11.83-8.46-10.61
		c-2.72,0.84-4.9,7.27-5.99,9.48c-2.42,4.89-4.49,9.94-6.5,15.01c-2.85,7.24-19.97,41.89,0.64,36.84c8.19-2,15.21-5.89,23.82-6.26
		c5.47-0.24,14.57,0.88,18.48-4.02c4.6-5.75-1.73-13.32-4.96-18.06C650.23,432.79,645.51,424.6,638.5,418.19z M623.05,348.63
		c14.41-8.96-19.86-32.18-25.21-36.13c-2.17-1.6-7.75-8.09-10.72-7.51c-1.9,0.38-4.05,4.43-5.82,5.56
		c-7.57,4.88-10.46,15.85-13.51,24.04c-2.15,5.76-6.1,14.66,0.41,19.2c3.94,2.75,9.79,1.93,14.2,1.24
		c5.55-0.88,10.92-2.61,16.44-3.6c4.27-0.77,8.66-1.18,12.98-1.53C615.19,349.64,620.07,350.48,623.05,348.63z M477.37,488.49
		c5.29,4.05,10.7,10.35,17.27,12.16c10.22,2.81,9.01-16.12,8.89-21.9c-0.09-4.37-0.88-9-0.51-13.35c0.27-3.19,0.06-9.66-5.3-9.43
		c-8.23,0.36-15.97,4.72-23.94,6.53c-5.59,1.26-15.33,2.76-14.43,10.74C460.15,480.3,472.51,484.77,477.37,488.49z M405.92,376.46
		c-4.18,1.44-6.93,8.66-8.77,12.2c-2.65,5.11-5.4,10.21-7.44,15.6c-1.91,5.07-6.22,13-0.26,16.88c2.22,1.45,5.38,1.25,7.9,1.39
		c4,0.2,7.98,0.69,11.99,0.79c4.24,0.1,8.43-0.27,12.66-0.34c2.74-0.05,5.82,0.42,8.43-0.66c7.45-3.07,3.82-12,0.72-16.83
		c-4.37-6.81-10.04-12.71-14.51-19.45C414.58,382.93,410.88,374.75,405.92,376.46z M503.53,478.75c-0.09-4.37-0.88-9-0.51-13.35
		c0.27-3.19,0.06-9.66-5.3-9.43c-8.23,0.36-15.97,4.72-23.94,6.53c-5.59,1.26-15.33,2.76-14.43,10.74
		c0.8,7.06,13.16,11.53,18.02,15.25c5.29,4.05,10.7,10.35,17.27,12.16C504.86,503.46,503.65,484.53,503.53,478.75z M431.15,405.49
		c-4.37-6.81-10.04-12.71-14.51-19.45c-2.06-3.11-5.76-11.29-10.72-9.58c-4.18,1.44-6.93,8.66-8.77,12.2
		c-2.65,5.11-5.4,10.21-7.44,15.6c-1.91,5.07-6.22,13-0.26,16.88c2.22,1.45,5.38,1.25,7.9,1.39c4,0.2,7.98,0.69,11.99,0.79
		c4.24,0.1,8.43-0.27,12.66-0.34c2.74-0.05,5.82,0.42,8.43-0.66C437.88,419.25,434.25,410.32,431.15,405.49z M597.84,312.5
		c-2.17-1.6-7.75-8.09-10.72-7.51c-1.9,0.38-4.05,4.43-5.82,5.56c-7.57,4.88-10.46,15.85-13.51,24.04
		c-2.15,5.76-6.1,14.66,0.41,19.2c3.94,2.75,9.79,1.93,14.2,1.24c5.55-0.88,10.92-2.61,16.44-3.6c4.27-0.77,8.66-1.18,12.98-1.53
		c3.37-0.26,8.25,0.58,11.23-1.27C637.46,339.67,603.19,316.45,597.84,312.5z M655.53,440.57c-5.3-7.78-10.02-15.97-17.03-22.38
		c-2.49-2.28-4.52-11.83-8.46-10.61c-2.72,0.84-4.9,7.27-5.99,9.48c-2.42,4.89-4.49,9.94-6.5,15.01
		c-2.85,7.24-19.97,41.89,0.64,36.84c8.19-2,15.21-5.89,23.82-6.26c5.47-0.24,14.57,0.88,18.48-4.02
		C665.09,452.88,658.76,445.31,655.53,440.57z M793.85,145.54c-4.73,0.47-6.48,9.31-6.51,12.85c-0.04,3.57,1.91,9.84,6.37,5.57
		c3.17-3.03,2.81-9.37,3.83-13.32C794.53,149.83,797.89,145.15,793.85,145.54z M805.53,177.2c-4.07-3.38-2.65-6.21-1.05-10.6
		c0.99-2.68,6.83-15.96,3.41-18.03c-6.1-3.7-12.7,21.07-13.42,24.25c-1.11,4.84-2.58,10.75,2.43,13.83
		c3.44,2.12,11.92,3.94,14.39-0.39C813.96,181.57,808.37,179.55,805.53,177.2z M821.71,190.34c-2.25,0.03-4.73,3.11-6.65,4.07
		c-3.36,1.69-6.88,1.45-10.43,2.02c-7.4,1.19-2.29,8.37,2.44,10c5.98,2.05,12.78-0.1,15.96-5.67
		C824.54,198.12,827.22,190.26,821.71,190.34z M822.21,150.79c-3.6,2.18-7.88,21.51-1.51,21.15c5.24-0.31,6.17-8.35,6.6-12.12
		C827.67,156.62,827.98,147.31,822.21,150.79z M822.21,150.79c-3.6,2.18-7.88,21.51-1.51,21.15c5.24-0.31,6.17-8.35,6.6-12.12
		C827.67,156.62,827.98,147.31,822.21,150.79z M821.71,190.34c-2.25,0.03-4.73,3.11-6.65,4.07c-3.36,1.69-6.88,1.45-10.43,2.02
		c-7.4,1.19-2.29,8.37,2.44,10c5.98,2.05,12.78-0.1,15.96-5.67C824.54,198.12,827.22,190.26,821.71,190.34z M805.53,177.2
		c-4.07-3.38-2.65-6.21-1.05-10.6c0.99-2.68,6.83-15.96,3.41-18.03c-6.1-3.7-12.7,21.07-13.42,24.25
		c-1.11,4.84-2.58,10.75,2.43,13.83c3.44,2.12,11.92,3.94,14.39-0.39C813.96,181.57,808.37,179.55,805.53,177.2z M793.85,145.54
		c-4.73,0.47-6.48,9.31-6.51,12.85c-0.04,3.57,1.91,9.84,6.37,5.57c3.17-3.03,2.81-9.37,3.83-13.32
		C794.53,149.83,797.89,145.15,793.85,145.54z M655.53,440.57c-5.3-7.78-10.02-15.97-17.03-22.38c-2.49-2.28-4.52-11.83-8.46-10.61
		c-2.72,0.84-4.9,7.27-5.99,9.48c-2.42,4.89-4.49,9.94-6.5,15.01c-2.85,7.24-19.97,41.89,0.64,36.84c8.19-2,15.21-5.89,23.82-6.26
		c5.47-0.24,14.57,0.88,18.48-4.02C665.09,452.88,658.76,445.31,655.53,440.57z M597.84,312.5c-2.17-1.6-7.75-8.09-10.72-7.51
		c-1.9,0.38-4.05,4.43-5.82,5.56c-7.57,4.88-10.46,15.85-13.51,24.04c-2.15,5.76-6.1,14.66,0.41,19.2c3.94,2.75,9.79,1.93,14.2,1.24
		c5.55-0.88,10.92-2.61,16.44-3.6c4.27-0.77,8.66-1.18,12.98-1.53c3.37-0.26,8.25,0.58,11.23-1.27
		C637.46,339.67,603.19,316.45,597.84,312.5z M503.53,478.75c-0.09-4.37-0.88-9-0.51-13.35c0.27-3.19,0.06-9.66-5.3-9.43
		c-8.23,0.36-15.97,4.72-23.94,6.53c-5.59,1.26-15.33,2.76-14.43,10.74c0.8,7.06,13.16,11.53,18.02,15.25
		c5.29,4.05,10.7,10.35,17.27,12.16C504.86,503.46,503.65,484.53,503.53,478.75z M431.15,405.49c-4.37-6.81-10.04-12.71-14.51-19.45
		c-2.06-3.11-5.76-11.29-10.72-9.58c-4.18,1.44-6.93,8.66-8.77,12.2c-2.65,5.11-5.4,10.21-7.44,15.6c-1.91,5.07-6.22,13-0.26,16.88
		c2.22,1.45,5.38,1.25,7.9,1.39c4,0.2,7.98,0.69,11.99,0.79c4.24,0.1,8.43-0.27,12.66-0.34c2.74-0.05,5.82,0.42,8.43-0.66
		C437.88,419.25,434.25,410.32,431.15,405.49z M503.53,478.75c-0.09-4.37-0.88-9-0.51-13.35c0.27-3.19,0.06-9.66-5.3-9.43
		c-8.23,0.36-15.97,4.72-23.94,6.53c-5.59,1.26-15.33,2.76-14.43,10.74c0.8,7.06,13.16,11.53,18.02,15.25
		c5.29,4.05,10.7,10.35,17.27,12.16C504.86,503.46,503.65,484.53,503.53,478.75z M431.15,405.49c-4.37-6.81-10.04-12.71-14.51-19.45
		c-2.06-3.11-5.76-11.29-10.72-9.58c-4.18,1.44-6.93,8.66-8.77,12.2c-2.65,5.11-5.4,10.21-7.44,15.6c-1.91,5.07-6.22,13-0.26,16.88
		c2.22,1.45,5.38,1.25,7.9,1.39c4,0.2,7.98,0.69,11.99,0.79c4.24,0.1,8.43-0.27,12.66-0.34c2.74-0.05,5.82,0.42,8.43-0.66
		C437.88,419.25,434.25,410.32,431.15,405.49z M597.84,312.5c-2.17-1.6-7.75-8.09-10.72-7.51c-1.9,0.38-4.05,4.43-5.82,5.56
		c-7.57,4.88-10.46,15.85-13.51,24.04c-2.15,5.76-6.1,14.66,0.41,19.2c3.94,2.75,9.79,1.93,14.2,1.24
		c5.55-0.88,10.92-2.61,16.44-3.6c4.27-0.77,8.66-1.18,12.98-1.53c3.37-0.26,8.25,0.58,11.23-1.27
		C637.46,339.67,603.19,316.45,597.84,312.5z M655.53,440.57c-5.3-7.78-10.02-15.97-17.03-22.38c-2.49-2.28-4.52-11.83-8.46-10.61
		c-2.72,0.84-4.9,7.27-5.99,9.48c-2.42,4.89-4.49,9.94-6.5,15.01c-2.85,7.24-19.97,41.89,0.64,36.84c8.19-2,15.21-5.89,23.82-6.26
		c5.47-0.24,14.57,0.88,18.48-4.02C665.09,452.88,658.76,445.31,655.53,440.57z M793.85,145.54c-4.73,0.47-6.48,9.31-6.51,12.85
		c-0.04,3.57,1.91,9.84,6.37,5.57c3.17-3.03,2.81-9.37,3.83-13.32C794.53,149.83,797.89,145.15,793.85,145.54z M805.53,177.2
		c-4.07-3.38-2.65-6.21-1.05-10.6c0.99-2.68,6.83-15.96,3.41-18.03c-6.1-3.7-12.7,21.07-13.42,24.25
		c-1.11,4.84-2.58,10.75,2.43,13.83c3.44,2.12,11.92,3.94,14.39-0.39C813.96,181.57,808.37,179.55,805.53,177.2z M821.71,190.34
		c-2.25,0.03-4.73,3.11-6.65,4.07c-3.36,1.69-6.88,1.45-10.43,2.02c-7.4,1.19-2.29,8.37,2.44,10c5.98,2.05,12.78-0.1,15.96-5.67
		C824.54,198.12,827.22,190.26,821.71,190.34z M822.21,150.79c-3.6,2.18-7.88,21.51-1.51,21.15c5.24-0.31,6.17-8.35,6.6-12.12
		C827.67,156.62,827.98,147.31,822.21,150.79z M822.21,150.79c-3.6,2.18-7.88,21.51-1.51,21.15c5.24-0.31,6.17-8.35,6.6-12.12
		C827.67,156.62,827.98,147.31,822.21,150.79z M821.71,190.34c-2.25,0.03-4.73,3.11-6.65,4.07c-3.36,1.69-6.88,1.45-10.43,2.02
		c-7.4,1.19-2.29,8.37,2.44,10c5.98,2.05,12.78-0.1,15.96-5.67C824.54,198.12,827.22,190.26,821.71,190.34z M805.53,177.2
		c-4.07-3.38-2.65-6.21-1.05-10.6c0.99-2.68,6.83-15.96,3.41-18.03c-6.1-3.7-12.7,21.07-13.42,24.25
		c-1.11,4.84-2.58,10.75,2.43,13.83c3.44,2.12,11.92,3.94,14.39-0.39C813.96,181.57,808.37,179.55,805.53,177.2z M793.85,145.54
		c-4.73,0.47-6.48,9.31-6.51,12.85c-0.04,3.57,1.91,9.84,6.37,5.57c3.17-3.03,2.81-9.37,3.83-13.32
		C794.53,149.83,797.89,145.15,793.85,145.54z M655.53,440.57c-5.3-7.78-10.02-15.97-17.03-22.38c-2.49-2.28-4.52-11.83-8.46-10.61
		c-2.72,0.84-4.9,7.27-5.99,9.48c-2.42,4.89-4.49,9.94-6.5,15.01c-2.85,7.24-19.97,41.89,0.64,36.84c8.19-2,15.21-5.89,23.82-6.26
		c5.47-0.24,14.57,0.88,18.48-4.02C665.09,452.88,658.76,445.31,655.53,440.57z M597.84,312.5c-2.17-1.6-7.75-8.09-10.72-7.51
		c-1.9,0.38-4.05,4.43-5.82,5.56c-7.57,4.88-10.46,15.85-13.51,24.04c-2.15,5.76-6.1,14.66,0.41,19.2c3.94,2.75,9.79,1.93,14.2,1.24
		c5.55-0.88,10.92-2.61,16.44-3.6c4.27-0.77,8.66-1.18,12.98-1.53c3.37-0.26,8.25,0.58,11.23-1.27
		C637.46,339.67,603.19,316.45,597.84,312.5z M503.53,478.75c-0.09-4.37-0.88-9-0.51-13.35c0.27-3.19,0.06-9.66-5.3-9.43
		c-8.23,0.36-15.97,4.72-23.94,6.53c-5.59,1.26-15.33,2.76-14.43,10.74c0.8,7.06,13.16,11.53,18.02,15.25
		c5.29,4.05,10.7,10.35,17.27,12.16C504.86,503.46,503.65,484.53,503.53,478.75z M431.15,405.49c-4.37-6.81-10.04-12.71-14.51-19.45
		c-2.06-3.11-5.76-11.29-10.72-9.58c-4.18,1.44-6.93,8.66-8.77,12.2c-2.65,5.11-5.4,10.21-7.44,15.6c-1.91,5.07-6.22,13-0.26,16.88
		c2.22,1.45,5.38,1.25,7.9,1.39c4,0.2,7.98,0.69,11.99,0.79c4.24,0.1,8.43-0.27,12.66-0.34c2.74-0.05,5.82,0.42,8.43-0.66
		C437.88,419.25,434.25,410.32,431.15,405.49z M503.53,478.75c-0.09-4.37-0.88-9-0.51-13.35c0.27-3.19,0.06-9.66-5.3-9.43
		c-8.23,0.36-15.97,4.72-23.94,6.53c-5.59,1.26-15.33,2.76-14.43,10.74c0.8,7.06,13.16,11.53,18.02,15.25
		c5.29,4.05,10.7,10.35,17.27,12.16C504.86,503.46,503.65,484.53,503.53,478.75z M431.15,405.49c-4.37-6.81-10.04-12.71-14.51-19.45
		c-2.06-3.11-5.76-11.29-10.72-9.58c-4.18,1.44-6.93,8.66-8.77,12.2c-2.65,5.11-5.4,10.21-7.44,15.6c-1.91,5.07-6.22,13-0.26,16.88
		c2.22,1.45,5.38,1.25,7.9,1.39c4,0.2,7.98,0.69,11.99,0.79c4.24,0.1,8.43-0.27,12.66-0.34c2.74-0.05,5.82,0.42,8.43-0.66
		C437.88,419.25,434.25,410.32,431.15,405.49z M597.84,312.5c-2.17-1.6-7.75-8.09-10.72-7.51c-1.9,0.38-4.05,4.43-5.82,5.56
		c-7.57,4.88-10.46,15.85-13.51,24.04c-2.15,5.76-6.1,14.66,0.41,19.2c3.94,2.75,9.79,1.93,14.2,1.24
		c5.55-0.88,10.92-2.61,16.44-3.6c4.27-0.77,8.66-1.18,12.98-1.53c3.37-0.26,8.25,0.58,11.23-1.27
		C637.46,339.67,603.19,316.45,597.84,312.5z M655.53,440.57c-5.3-7.78-10.02-15.97-17.03-22.38c-2.49-2.28-4.52-11.83-8.46-10.61
		c-2.72,0.84-4.9,7.27-5.99,9.48c-2.42,4.89-4.49,9.94-6.5,15.01c-2.85,7.24-19.97,41.89,0.64,36.84c8.19-2,15.21-5.89,23.82-6.26
		c5.47-0.24,14.57,0.88,18.48-4.02C665.09,452.88,658.76,445.31,655.53,440.57z M793.85,145.54c-4.73,0.47-6.48,9.31-6.51,12.85
		c-0.04,3.57,1.91,9.84,6.37,5.57c3.17-3.03,2.81-9.37,3.83-13.32C794.53,149.83,797.89,145.15,793.85,145.54z M805.53,177.2
		c-4.07-3.38-2.65-6.21-1.05-10.6c0.99-2.68,6.83-15.96,3.41-18.03c-6.1-3.7-12.7,21.07-13.42,24.25
		c-1.11,4.84-2.58,10.75,2.43,13.83c3.44,2.12,11.92,3.94,14.39-0.39C813.96,181.57,808.37,179.55,805.53,177.2z M821.71,190.34
		c-2.25,0.03-4.73,3.11-6.65,4.07c-3.36,1.69-6.88,1.45-10.43,2.02c-7.4,1.19-2.29,8.37,2.44,10c5.98,2.05,12.78-0.1,15.96-5.67
		C824.54,198.12,827.22,190.26,821.71,190.34z M822.21,150.79c-3.6,2.18-7.88,21.51-1.51,21.15c5.24-0.31,6.17-8.35,6.6-12.12
		C827.67,156.62,827.98,147.31,822.21,150.79z M822.21,150.79c-3.6,2.18-7.88,21.51-1.51,21.15c5.24-0.31,6.17-8.35,6.6-12.12
		C827.67,156.62,827.98,147.31,822.21,150.79z M821.71,190.34c-2.25,0.03-4.73,3.11-6.65,4.07c-3.36,1.69-6.88,1.45-10.43,2.02
		c-7.4,1.19-2.29,8.37,2.44,10c5.98,2.05,12.78-0.1,15.96-5.67C824.54,198.12,827.22,190.26,821.71,190.34z M805.53,177.2
		c-4.07-3.38-2.65-6.21-1.05-10.6c0.99-2.68,6.83-15.96,3.41-18.03c-6.1-3.7-12.7,21.07-13.42,24.25
		c-1.11,4.84-2.58,10.75,2.43,13.83c3.44,2.12,11.92,3.94,14.39-0.39C813.96,181.57,808.37,179.55,805.53,177.2z M793.85,145.54
		c-4.73,0.47-6.48,9.31-6.51,12.85c-0.04,3.57,1.91,9.84,6.37,5.57c3.17-3.03,2.81-9.37,3.83-13.32
		C794.53,149.83,797.89,145.15,793.85,145.54z M655.53,440.57c-5.3-7.78-10.02-15.97-17.03-22.38c-2.49-2.28-4.52-11.83-8.46-10.61
		c-2.72,0.84-4.9,7.27-5.99,9.48c-2.42,4.89-4.49,9.94-6.5,15.01c-2.85,7.24-19.97,41.89,0.64,36.84c8.19-2,15.21-5.89,23.82-6.26
		c5.47-0.24,14.57,0.88,18.48-4.02C665.09,452.88,658.76,445.31,655.53,440.57z M597.84,312.5c-2.17-1.6-7.75-8.09-10.72-7.51
		c-1.9,0.38-4.05,4.43-5.82,5.56c-7.57,4.88-10.46,15.85-13.51,24.04c-2.15,5.76-6.1,14.66,0.41,19.2c3.94,2.75,9.79,1.93,14.2,1.24
		c5.55-0.88,10.92-2.61,16.44-3.6c4.27-0.77,8.66-1.18,12.98-1.53c3.37-0.26,8.25,0.58,11.23-1.27
		C637.46,339.67,603.19,316.45,597.84,312.5z M503.53,478.75c-0.09-4.37-0.88-9-0.51-13.35c0.27-3.19,0.06-9.66-5.3-9.43
		c-8.23,0.36-15.97,4.72-23.94,6.53c-5.59,1.26-15.33,2.76-14.43,10.74c0.8,7.06,13.16,11.53,18.02,15.25
		c5.29,4.05,10.7,10.35,17.27,12.16C504.86,503.46,503.65,484.53,503.53,478.75z M431.15,405.49c-4.37-6.81-10.04-12.71-14.51-19.45
		c-2.06-3.11-5.76-11.29-10.72-9.58c-4.18,1.44-6.93,8.66-8.77,12.2c-2.65,5.11-5.4,10.21-7.44,15.6c-1.91,5.07-6.22,13-0.26,16.88
		c2.22,1.45,5.38,1.25,7.9,1.39c4,0.2,7.98,0.69,11.99,0.79c4.24,0.1,8.43-0.27,12.66-0.34c2.74-0.05,5.82,0.42,8.43-0.66
		C437.88,419.25,434.25,410.32,431.15,405.49z M503.53,478.75c-0.09-4.37-0.88-9-0.51-13.35c0.27-3.19,0.06-9.66-5.3-9.43
		c-8.23,0.36-15.97,4.72-23.94,6.53c-5.59,1.26-15.33,2.76-14.43,10.74c0.8,7.06,13.16,11.53,18.02,15.25
		c5.29,4.05,10.7,10.35,17.27,12.16C504.86,503.46,503.65,484.53,503.53,478.75z M431.15,405.49c-4.37-6.81-10.04-12.71-14.51-19.45
		c-2.06-3.11-5.76-11.29-10.72-9.58c-4.18,1.44-6.93,8.66-8.77,12.2c-2.65,5.11-5.4,10.21-7.44,15.6c-1.91,5.07-6.22,13-0.26,16.88
		c2.22,1.45,5.38,1.25,7.9,1.39c4,0.2,7.98,0.69,11.99,0.79c4.24,0.1,8.43-0.27,12.66-0.34c2.74-0.05,5.82,0.42,8.43-0.66
		C437.88,419.25,434.25,410.32,431.15,405.49z M597.84,312.5c-2.17-1.6-7.75-8.09-10.72-7.51c-1.9,0.38-4.05,4.43-5.82,5.56
		c-7.57,4.88-10.46,15.85-13.51,24.04c-2.15,5.76-6.1,14.66,0.41,19.2c3.94,2.75,9.79,1.93,14.2,1.24
		c5.55-0.88,10.92-2.61,16.44-3.6c4.27-0.77,8.66-1.18,12.98-1.53c3.37-0.26,8.25,0.58,11.23-1.27
		C637.46,339.67,603.19,316.45,597.84,312.5z M655.53,440.57c-5.3-7.78-10.02-15.97-17.03-22.38c-2.49-2.28-4.52-11.83-8.46-10.61
		c-2.72,0.84-4.9,7.27-5.99,9.48c-2.42,4.89-4.49,9.94-6.5,15.01c-2.85,7.24-19.97,41.89,0.64,36.84c8.19-2,15.21-5.89,23.82-6.26
		c5.47-0.24,14.57,0.88,18.48-4.02C665.09,452.88,658.76,445.31,655.53,440.57z M793.85,145.54c-4.73,0.47-6.48,9.31-6.51,12.85
		c-0.04,3.57,1.91,9.84,6.37,5.57c3.17-3.03,2.81-9.37,3.83-13.32C794.53,149.83,797.89,145.15,793.85,145.54z M805.53,177.2
		c-4.07-3.38-2.65-6.21-1.05-10.6c0.99-2.68,6.83-15.96,3.41-18.03c-6.1-3.7-12.7,21.07-13.42,24.25
		c-1.11,4.84-2.58,10.75,2.43,13.83c3.44,2.12,11.92,3.94,14.39-0.39C813.96,181.57,808.37,179.55,805.53,177.2z M821.71,190.34
		c-2.25,0.03-4.73,3.11-6.65,4.07c-3.36,1.69-6.88,1.45-10.43,2.02c-7.4,1.19-2.29,8.37,2.44,10c5.98,2.05,12.78-0.1,15.96-5.67
		C824.54,198.12,827.22,190.26,821.71,190.34z M822.21,150.79c-3.6,2.18-7.88,21.51-1.51,21.15c5.24-0.31,6.17-8.35,6.6-12.12
		C827.67,156.62,827.98,147.31,822.21,150.79z M822.21,150.79c-3.6,2.18-7.88,21.51-1.51,21.15c5.24-0.31,6.17-8.35,6.6-12.12
		C827.67,156.62,827.98,147.31,822.21,150.79z M821.71,190.34c-2.25,0.03-4.73,3.11-6.65,4.07c-3.36,1.69-6.88,1.45-10.43,2.02
		c-7.4,1.19-2.29,8.37,2.44,10c5.98,2.05,12.78-0.1,15.96-5.67C824.54,198.12,827.22,190.26,821.71,190.34z M805.53,177.2
		c-4.07-3.38-2.65-6.21-1.05-10.6c0.99-2.68,6.83-15.96,3.41-18.03c-6.1-3.7-12.7,21.07-13.42,24.25
		c-1.11,4.84-2.58,10.75,2.43,13.83c3.44,2.12,11.92,3.94,14.39-0.39C813.96,181.57,808.37,179.55,805.53,177.2z M793.85,145.54
		c-4.73,0.47-6.48,9.31-6.51,12.85c-0.04,3.57,1.91,9.84,6.37,5.57c3.17-3.03,2.81-9.37,3.83-13.32
		C794.53,149.83,797.89,145.15,793.85,145.54z M655.53,440.57c-5.3-7.78-10.02-15.97-17.03-22.38c-2.49-2.28-4.52-11.83-8.46-10.61
		c-2.72,0.84-4.9,7.27-5.99,9.48c-2.42,4.89-4.49,9.94-6.5,15.01c-2.85,7.24-19.97,41.89,0.64,36.84c8.19-2,15.21-5.89,23.82-6.26
		c5.47-0.24,14.57,0.88,18.48-4.02C665.09,452.88,658.76,445.31,655.53,440.57z M597.84,312.5c-2.17-1.6-7.75-8.09-10.72-7.51
		c-1.9,0.38-4.05,4.43-5.82,5.56c-7.57,4.88-10.46,15.85-13.51,24.04c-2.15,5.76-6.1,14.66,0.41,19.2c3.94,2.75,9.79,1.93,14.2,1.24
		c5.55-0.88,10.92-2.61,16.44-3.6c4.27-0.77,8.66-1.18,12.98-1.53c3.37-0.26,8.25,0.58,11.23-1.27
		C637.46,339.67,603.19,316.45,597.84,312.5z M503.53,478.75c-0.09-4.37-0.88-9-0.51-13.35c0.27-3.19,0.06-9.66-5.3-9.43
		c-8.23,0.36-15.97,4.72-23.94,6.53c-5.59,1.26-15.33,2.76-14.43,10.74c0.8,7.06,13.16,11.53,18.02,15.25
		c5.29,4.05,10.7,10.35,17.27,12.16C504.86,503.46,503.65,484.53,503.53,478.75z M431.15,405.49c-4.37-6.81-10.04-12.71-14.51-19.45
		c-2.06-3.11-5.76-11.29-10.72-9.58c-4.18,1.44-6.93,8.66-8.77,12.2c-2.65,5.11-5.4,10.21-7.44,15.6c-1.91,5.07-6.22,13-0.26,16.88
		c2.22,1.45,5.38,1.25,7.9,1.39c4,0.2,7.98,0.69,11.99,0.79c4.24,0.1,8.43-0.27,12.66-0.34c2.74-0.05,5.82,0.42,8.43-0.66
		C437.88,419.25,434.25,410.32,431.15,405.49z M503.53,478.75c-0.09-4.37-0.88-9-0.51-13.35c0.27-3.19,0.06-9.66-5.3-9.43
		c-8.23,0.36-15.97,4.72-23.94,6.53c-5.59,1.26-15.33,2.76-14.43,10.74c0.8,7.06,13.16,11.53,18.02,15.25
		c5.29,4.05,10.7,10.35,17.27,12.16C504.86,503.46,503.65,484.53,503.53,478.75z M431.15,405.49c-4.37-6.81-10.04-12.71-14.51-19.45
		c-2.06-3.11-5.76-11.29-10.72-9.58c-4.18,1.44-6.93,8.66-8.77,12.2c-2.65,5.11-5.4,10.21-7.44,15.6c-1.91,5.07-6.22,13-0.26,16.88
		c2.22,1.45,5.38,1.25,7.9,1.39c4,0.2,7.98,0.69,11.99,0.79c4.24,0.1,8.43-0.27,12.66-0.34c2.74-0.05,5.82,0.42,8.43-0.66
		C437.88,419.25,434.25,410.32,431.15,405.49z M597.84,312.5c-2.17-1.6-7.75-8.09-10.72-7.51c-1.9,0.38-4.05,4.43-5.82,5.56
		c-7.57,4.88-10.46,15.85-13.51,24.04c-2.15,5.76-6.1,14.66,0.41,19.2c3.94,2.75,9.79,1.93,14.2,1.24
		c5.55-0.88,10.92-2.61,16.44-3.6c4.27-0.77,8.66-1.18,12.98-1.53c3.37-0.26,8.25,0.58,11.23-1.27
		C637.46,339.67,603.19,316.45,597.84,312.5z M655.53,440.57c-5.3-7.78-10.02-15.97-17.03-22.38c-2.49-2.28-4.52-11.83-8.46-10.61
		c-2.72,0.84-4.9,7.27-5.99,9.48c-2.42,4.89-4.49,9.94-6.5,15.01c-2.85,7.24-19.97,41.89,0.64,36.84c8.19-2,15.21-5.89,23.82-6.26
		c5.47-0.24,14.57,0.88,18.48-4.02C665.09,452.88,658.76,445.31,655.53,440.57z M793.85,145.54c-4.73,0.47-6.48,9.31-6.51,12.85
		c-0.04,3.57,1.91,9.84,6.37,5.57c3.17-3.03,2.81-9.37,3.83-13.32C794.53,149.83,797.89,145.15,793.85,145.54z M805.53,177.2
		c-4.07-3.38-2.65-6.21-1.05-10.6c0.99-2.68,6.83-15.96,3.41-18.03c-6.1-3.7-12.7,21.07-13.42,24.25
		c-1.11,4.84-2.58,10.75,2.43,13.83c3.44,2.12,11.92,3.94,14.39-0.39C813.96,181.57,808.37,179.55,805.53,177.2z M821.71,190.34
		c-2.25,0.03-4.73,3.11-6.65,4.07c-3.36,1.69-6.88,1.45-10.43,2.02c-7.4,1.19-2.29,8.37,2.44,10c5.98,2.05,12.78-0.1,15.96-5.67
		C824.54,198.12,827.22,190.26,821.71,190.34z M822.21,150.79c-3.6,2.18-7.88,21.51-1.51,21.15c5.24-0.31,6.17-8.35,6.6-12.12
		C827.67,156.62,827.98,147.31,822.21,150.79z M822.21,150.79c-3.6,2.18-7.88,21.51-1.51,21.15c5.24-0.31,6.17-8.35,6.6-12.12
		C827.67,156.62,827.98,147.31,822.21,150.79z M821.71,190.34c-2.25,0.03-4.73,3.11-6.65,4.07c-3.36,1.69-6.88,1.45-10.43,2.02
		c-7.4,1.19-2.29,8.37,2.44,10c5.98,2.05,12.78-0.1,15.96-5.67C824.54,198.12,827.22,190.26,821.71,190.34z M805.53,177.2
		c-4.07-3.38-2.65-6.21-1.05-10.6c0.99-2.68,6.83-15.96,3.41-18.03c-6.1-3.7-12.7,21.07-13.42,24.25
		c-1.11,4.84-2.58,10.75,2.43,13.83c3.44,2.12,11.92,3.94,14.39-0.39C813.96,181.57,808.37,179.55,805.53,177.2z M793.85,145.54
		c-4.73,0.47-6.48,9.31-6.51,12.85c-0.04,3.57,1.91,9.84,6.37,5.57c3.17-3.03,2.81-9.37,3.83-13.32
		C794.53,149.83,797.89,145.15,793.85,145.54z M655.53,440.57c-5.3-7.78-10.02-15.97-17.03-22.38c-2.49-2.28-4.52-11.83-8.46-10.61
		c-2.72,0.84-4.9,7.27-5.99,9.48c-2.42,4.89-4.49,9.94-6.5,15.01c-2.85,7.24-19.97,41.89,0.64,36.84c8.19-2,15.21-5.89,23.82-6.26
		c5.47-0.24,14.57,0.88,18.48-4.02C665.09,452.88,658.76,445.31,655.53,440.57z M597.84,312.5c-2.17-1.6-7.75-8.09-10.72-7.51
		c-1.9,0.38-4.05,4.43-5.82,5.56c-7.57,4.88-10.46,15.85-13.51,24.04c-2.15,5.76-6.1,14.66,0.41,19.2c3.94,2.75,9.79,1.93,14.2,1.24
		c5.55-0.88,10.92-2.61,16.44-3.6c4.27-0.77,8.66-1.18,12.98-1.53c3.37-0.26,8.25,0.58,11.23-1.27
		C637.46,339.67,603.19,316.45,597.84,312.5z M503.53,478.75c-0.09-4.37-0.88-9-0.51-13.35c0.27-3.19,0.06-9.66-5.3-9.43
		c-8.23,0.36-15.97,4.72-23.94,6.53c-5.59,1.26-15.33,2.76-14.43,10.74c0.8,7.06,13.16,11.53,18.02,15.25
		c5.29,4.05,10.7,10.35,17.27,12.16C504.86,503.46,503.65,484.53,503.53,478.75z M431.15,405.49c-4.37-6.81-10.04-12.71-14.51-19.45
		c-2.06-3.11-5.76-11.29-10.72-9.58c-4.18,1.44-6.93,8.66-8.77,12.2c-2.65,5.11-5.4,10.21-7.44,15.6c-1.91,5.07-6.22,13-0.26,16.88
		c2.22,1.45,5.38,1.25,7.9,1.39c4,0.2,7.98,0.69,11.99,0.79c4.24,0.1,8.43-0.27,12.66-0.34c2.74-0.05,5.82,0.42,8.43-0.66
		C437.88,419.25,434.25,410.32,431.15,405.49z"/>
	<path class="st2" d="M100.69,524.41c-3.12,2.03-9.92,1.31-13.03-0.46c-5.53-3.15-6.49-10.4-5.5-16.13
		c1.16-6.68,7.25-10.65,8.8-17.01c1.59-6.53-4.36-11.13-10.14-12.03c-2.76-0.43-9.06,0.52-5.96-3.87c2.9-4.11,9.2-4.81,13.46-2.97
		c5.94,2.57,9.2,9.59,9.56,15.77c0.43,7.45-4.47,12.45-7,18.97c-2.07,5.35,1.31,6.45,5.5,8.48
		C99.54,516.7,105.47,521.31,100.69,524.41z"/>
	<path class="st2" d="M167.53,546c-1.05,0.88-3.42-0.2-4.59-0.19c-1.98,0-4.06,0.49-6.01,0.76c-4.94,0.68-10.01,1.49-15.02,1.11
		c-4.29-0.33-7.92-1.43-9.47-5.72c-1.35-3.75-2.18-9.81-0.51-13.57c2.19-4.95,9.16-3.98,13.65-4.98c3.83-0.85,7.61-1.95,11.36-3.09
		c1.76-0.53,5.4-2.43,7.42-2.06c3.23,0.58,2.19,4.34,2.33,7.1c0.2,3.85,0.93,7.64,1.2,11.48C167.99,538.39,168.88,544.86,167.53,546
		z"/>
	<path class="st2" d="M393.89,529.68c-9.31,3.71-17.3-1.18-25.98-4.07c-6.77-2.25-12.54-1.08-18.43,2.58
		c-2.81,1.74-11.93,7.08-10.33-0.9c0.93-4.62,6.6-9.09,10.46-11.39c7.62-4.54,16.33-2.97,24.07,0.34c7.73,3.3,14.14,6.2,21.89,1.63
		c2.95-1.75,8.55-5.94,10.46-1.06C408.8,523.89,398.53,527.83,393.89,529.68z"/>
	<path class="st2" d="M425.32,490.28c-1.3,3.15-2.73,2.67-5.51,2.2c-4.18-0.7-8.38-1.26-12.58-1.87
		c-5.72-0.84-12.96-0.54-18.33-2.75c-3.98-1.64-5.01-6.8-5.88-10.67c-1.18-5.32,1.37-5.86,6.52-5.55c4.17,0.25,7.99,0.88,12.16,0.54
		c4.75-0.39,9.51-0.94,14.29-0.91c2.9,0.02,6.76-0.29,8.24,2.49c0.99,1.86,0.82,5.54,1.1,7.63
		C425.7,484.12,426.4,487.65,425.32,490.28z"/>
	<path class="st2" d="M712.27,541.14c-27.19,1.52-54.68,3.98-80.7,12.54c-12.67,4.18-24.65,10.22-37.26,14.6
		c-5.62,1.95-11.23,3.97-16.81,6.01c-4.25,1.56-10.3,4.7-14.93,3.03c3.52-8.72,14.05-10.43,20.42-16.1
		c5.73-5.09,6.98-16.56-3.4-14.03c-5.96,1.45-11.4,4.85-17.25,6.74c-1.71,0.55-15.49,5.99-16.45,4.34
		c8.59-6.03,22.88-10.01,22.21-22.95c-0.61-11.97-16.05-6.43-23.3-4.83c-6.51,1.43-13.13,2.31-19.67,3.6
		c-7.97,1.57-15.81,4.1-23.84,5.32c-1.58,0.24-11.55,3.5-11.85,2.29c-0.38-1.49,7.47-5.08,8.63-5.7c12.96-6.95,25.67-13.23,40-16.85
		c6.06-1.54,13.06-3.59,19.37-3.35c2.9,0.11,5.52,1.43,8.3,0.12c3.76-1.75,6.03-4.28,10.33-5.41c15.3-3.98,31.16-6.77,46.68-9.83
		c7.8-1.53,15.51-3.03,23.11-5.39c8.14-2.53,16.21-5.51,24.64-6.97c2.84-0.49,6.29-1.31,9.2-0.79c3.06,0.54,5.48,2.25,8.8,2.32
		c3.39,0.07,9.61-3.77,12-1.03c1.96,2.24,1.54,9.06,2.03,11.91c0.71,4.09,1.56,8.16,2.49,12.21
		C707.2,522.4,709.85,531.74,712.27,541.14z"/>
	<path class="st2" d="M510.98,423.28c-1.17,1.2-5.24,0.48-6.66,0.42c-8.31-0.35-15.94,0.52-24.24,1.28
		c-11.47,1.06-22.93,1.36-33.79,5.66c2.18-21.32,4.96-42.62,9.71-63.54c1.55-6.84,2.08-15.51,5.36-21.77
		c3.64-6.95,13-4.73,18.86-1.89c3.32,1.61,5.92,4.01,8.04,6.83c0.02,0.02,0.03,0.04,0.05,0.06c0.3,0.4,0.59,0.81,0.87,1.22
		c0.01,0.01,0.01,0.02,0.02,0.03c1.71,2.53,3.08,5.34,4.26,8.17c3.77,9.05,7.32,18.39,10.23,27.75c2.87,9.18,3.97,18.72,6.49,27.95
		C510.64,417.15,512.54,421.66,510.98,423.28z"/>
	<path class="st2" d="M701.35,319.68c-4.14,14.78-8.8,29.53-12.56,44.4c-1.02,4.03-2.95,22.59-9.86,14.08
		c-3.03-3.72-4.9-8.99-7.39-13.11c-3.81-6.29-7.62-12.57-11.54-18.79c-8.04-12.74-16.58-25.21-26.41-36.64
		c4.96,0.34,9.22,3.4,13.88,4.81c16.48,4.99,32.71,5.24,49.63,5.25H701.35z"/>
	<path class="st2" d="M811.76,430.17c-0.4,4.35-0.04,9.01-1.61,13.17c-2.19,5.8-6.38,4.93-11.49,6.09
		c-6.14,1.39-12.11,3.66-18.28,5.08c-6.94,1.6-13.9,3.1-20.87,4.53c-12.73,2.61-25.28,4.1-38.17,5.63
		c-5.89,0.7-11.51,1.9-17.14,3.76c-5.68,1.87-11.8,2.73-17.13,5.53c-1.83,0.96-3.69,1.75-5.57,2.41
		c5.19-6.83,13.21-11.39,20.96-14.68c5.01-2.13,10.25-3.34,15.41-4.86h0.01c1.2,0.35,2.54,0.52,4.09,0.49
		c5.02-0.08,10.04-1.65,15-2.34c12.93-1.8,25.82-3.7,38.7-5.82c7.75-1.27,21.05-0.42,25.65-8.2c2.42-4.09,1.94-9.25,1.3-13.75
		c-0.92-6.41-2.1-12.8-3.2-19.18c-1.22-7.11-2.83-14.18-3.34-21.39c-0.48-6.82,0.65-13.72,0.38-20.37
		c-0.03-0.67-0.59,0.47-0.56-1.47c0.22-0.59,0.57-1.09,1.06-1.48c0.71-0.49,0.87-1.21,0.49-2.16c0.48-2.71-0.43-5.67-0.06-8.44
		c0.09-0.7,1.8-7.63,0.5-7.06c2.66-1.16,2.42-5.11,2.73-7.45c3.42,1.58,3.29,10.12,3.51,13.05c0.48,6.4,0.62,12.83,1.08,19.23
		C806.64,390.27,813.6,410.28,811.76,430.17z"/>
	<path class="st2" d="M895.86,62.18c-0.3,2.55-2.42,1.78-3.82,3c-3.53,3.08-0.27,8.99,0.82,12.6c1.39,4.61,1.83,8.98-3.65,10.51
		c-6.35,1.76-9.44,0.45-7.68,8.45c0.53,2.36,0.74,4.09,0.33,6.28c-0.45,2.37-0.79,2.59-2.74,3.7c-3.63,2.07-8.95,1.37-8,6.51
		c0.38,2.05,4.1,13.3-2.13,8.71c-4.43-3.26-6.21-13.17-3.05-17.5c2.08-2.85,6.76-1.67,8.65-4.23c1.44-1.96-0.29-4.8-0.63-6.91
		c-0.41-2.57-0.65-6.15,0.72-8.52c2.18-3.77,6.98-2.9,10.55-4.05c-1.74-5.94-4.86-11.9-1.96-17.95c1.7-3.53,5.1-9.54,9.28-6.13
		C893.76,57.64,896.07,60.46,895.86,62.18z"/>
	<path class="st2" d="M881.01,190.32c-0.63-3.67-5.45-6.17-8.38-7.78c-3.89-2.14-6.62-1.89-10.87-2.4
		c-11.65-1.39-3.48-18.43-1.8-24.83c1.06-4.02,2.29-9.21-0.48-12.84c-4.22-5.52-13.41-3.7-19.2-2.92
		c-8.01,1.08-16.75,1.66-24.24-1.98c-7.93-3.84-11.31-12.51-18.74-16.72c-2.75-1.56-7.56-3.08-10.38-0.92
		c-2.59,1.98-2.71,6.08-3.38,8.98c-2.25,9.75-5.4,19.24-7.26,29.09c-1.82,9.61-2.4,19.07-1.5,28.81c0.59,6.49,0.66,14.48,4.61,20.01
		c4.73,6.62,14.08,6.28,21.16,8.24c6.81,1.89,13.56,7.73,6.13,13.8c-2.64,2.16-6.1,2.51-8.71,4.59c-3.22,2.56-5.07,7.16-6.44,10.92
		c-1.12,3.09-1.09,3.68,2.27,4.78c1.54,0.49,3.09,0.81,4.71,0.68c3.68-0.31,6.96-2.74,10.04-4.56c7.86-4.66,16.94-10.88,26.32-11.58
		c3-0.23,6.41,1,9.32,0.03c2.72-0.91,1.88-1.47,2.36-3.99c1.87-10.02,2.62-19.85,7.73-28.91c2.52-4.47,9.19-13.62,13.65-6.66
		c1.87,2.91,2.54,4.33,6.68,3.44C877.98,196.87,881.68,194.21,881.01,190.32z M787.34,158.39c0.03-3.54,1.78-12.38,6.51-12.85
		c4.04-0.39,0.68,4.29,3.69,5.1c-1.02,3.95-0.66,10.29-3.83,13.32C789.25,168.23,787.3,161.96,787.34,158.39z M796.9,186.65
		c-5.01-3.08-3.54-8.99-2.43-13.83c0.72-3.18,7.32-27.95,13.42-24.25c3.42,2.07-2.42,15.35-3.41,18.03
		c-1.6,4.39-3.02,7.22,1.05,10.6c2.84,2.35,8.43,4.37,5.76,9.06C808.82,190.59,800.34,188.77,796.9,186.65z M823.03,200.76
		c-3.18,5.57-9.98,7.72-15.96,5.67c-4.73-1.63-9.84-8.81-2.44-10c3.55-0.57,7.07-0.33,10.43-2.02c1.92-0.96,4.4-4.04,6.65-4.07
		C827.22,190.26,824.54,198.12,823.03,200.76z M827.3,159.82c-0.43,3.77-1.36,11.81-6.6,12.12c-6.37,0.36-2.09-18.97,1.51-21.15
		C827.98,147.31,827.67,156.62,827.3,159.82z"/>
	<path class="st2" d="M467.74,156.38c-2.62,4.6-6.04,8.7-8.6,13.33c-2.2,3.98-3.85,8.58-7.28,11.71c-4.12,3.75-5.59-0.17-9.27-3.02
		c-5.16-3.98-10.53-7.8-16.15-11.11c-14.86-8.75-33.96-15.21-43.85-30.36c-3.32-5.1-2.95-14.53-11.4-12.85
		c-3.58,0.72-6.77,3.12-10.01,4.69c-4.65,2.25-9.46,4.2-14.2,6.23c-10.83,4.64-21.41,9.18-33.14,11.08
		c-1.76,0.29-8.86,1.87-9.16-1.27c-0.28-2.99,8.72-6.93,10.65-7.99c4.08-2.22,8.27-4.33,12.48-6.32c6.02-2.85,13.1-5.06,17.76-10.07
		c3.14-3.37,6.57-13.74-0.35-15.21c-3.27-0.7-6.48,2.05-9.37,3.16c-4.43,1.7-9.44,2.28-14.12,2.87c-9.54,1.2-19.11,2.07-28.7,2.64
		c-4.12,0.24-14.4,3.98-17.86,1.25c-2.4-1.88,2.13-4.32,4.16-5.67c3.23-2.14,6.8-3.74,10.42-5.1c7.01-2.63,14.34-4.21,21.58-6.07
		c4.75-1.23,9.22-2.6,14.15-2.75c4.21-0.13,7.56-0.05,10.45-3.49c5.31-6.33,4.2-15.47-5.1-14.96c-10.06,0.56-19.66-2-29.42-4.38
		c-11.17-2.71-21.96-6.79-32.52-11.3c19.12-8.62,41.56-9.42,62.02-6.16c21.59,3.43,39.84,15.43,57.06,28.23
		c18.59,13.8,34.05,31.3,52.69,45c7.6,5.59,14.67,9.5,23.61,12.12C472.78,143.11,471.62,149.59,467.74,156.38z"/>
</g>
</svg>
